<svg width="173" height="32" viewBox="0 0 173 32" fill="none" xmlns="http://www.w3.org/2000/svg">
<g clip-path="url(#clip0_1280_951)">
<path d="M13.3423 32H12.3198C9.66358 32 8.06549 31.9995 6.84473 31.7727L13.9097 22.4275L13.3423 32Z" fill="#0A1642"/>
<path d="M25.0276 31.8011C23.8278 31.9991 22.2559 32 19.7176 32H18.5087L17.9385 22.4247L25.0276 31.8011Z" fill="#0A1642"/>
<path d="M31.7742 25.3366C31.7226 25.5818 31.6619 25.8124 31.5879 26.0341C31.1032 27.4854 30.2522 28.7618 29.1433 29.7586L21.1768 20.8352L31.7742 25.3366Z" fill="#0A1642"/>
<path d="M2.79165 29.6634C1.73325 28.6809 0.919045 27.44 0.449454 26.0341C0.368137 25.7906 0.300621 25.5368 0.246094 25.2643L10.6715 20.8367L2.79165 29.6634Z" fill="#0A1642"/>
<path d="M32.0371 19.6946C32.0371 20.5942 32.0345 21.3723 32.0257 22.0553L22.5645 18.4048H32.0371V19.6946Z" fill="#0A1642"/>
<path d="M9.2877 18.4048L0.00853258 21.9844C0.000565538 21.3185 0 20.5632 0 19.6946V18.4048H9.2877Z" fill="#0A1642"/>
<path d="M19.7174 0C23.0512 0 24.7182 0.000442934 26.0642 0.448864C28.6715 1.3177 30.7178 3.36166 31.5876 5.96591C32.0366 7.31038 32.037 8.97544 32.037 12.3054V16.0128H22.0326L29.2483 12.9489L27.1081 11.5298L20.1071 14.2301L23.3935 9.8864L21.03 9.24008L17.4008 13.3026L17.1306 8.72728H14.723L14.4485 13.3026L10.8222 9.24008L8.4601 9.8864L11.7423 14.2287L4.74554 11.5298L2.60528 12.9489L9.81959 16.0128H0V12.3054C0 8.97544 0.000443447 7.31038 0.449383 5.96591C1.31923 3.36166 3.36555 1.3177 5.97282 0.448864C7.31884 0.000442934 8.98583 0 12.3196 0H19.7174Z" fill="#0A1642"/>
<path d="M74.7052 25.1547C75.458 26.5648 76.9117 27.4523 78.785 27.4523C80.6582 27.4523 82.1119 26.5648 82.8647 25.1547H85.6824C84.7509 27.9722 82.1623 29.8554 78.785 29.8554C75.4078 29.8554 72.819 27.9722 71.8872 25.1547H74.7052ZM115.736 10.2078C120.029 10.2078 123.037 13.1573 123.037 17.3906C123.037 21.8697 119.701 24.4101 116.174 24.4101C113.986 24.4101 112.127 23.4266 111.143 21.6789V29.8172H108.545V17.418C108.545 13.0209 111.553 10.2078 115.736 10.2078ZM115.764 12.6109C113.002 12.6109 111.143 14.5776 111.143 17.3085C111.143 20.0397 113.002 22.0062 115.764 22.0062C118.552 22.0062 120.412 20.0397 120.412 17.3085C120.412 14.5775 118.552 12.6109 115.764 12.6109ZM63.3202 10.2078C67.5856 10.2078 70.5934 13.212 70.5934 17.3085C70.5934 21.4053 67.5857 24.4101 63.3202 24.4101C59.0547 24.4101 56.0469 21.4053 56.0469 17.3085C56.0471 13.212 59.0548 10.2078 63.3202 10.2078ZM63.3202 12.6109C60.5313 12.6109 58.672 14.5775 58.6719 17.3085C58.6719 20.0397 60.5312 22.0062 63.3202 22.0062C66.1092 22.0062 67.9686 20.0397 67.9686 17.3085C67.9685 14.5775 66.1091 12.6109 63.3202 12.6109ZM79.0728 10.2141H86.1381V12.5344H84.3152C85.4189 13.7705 86.0572 15.4233 86.0572 17.3085C86.0572 21.4053 83.0498 24.4101 78.7842 24.4101C74.5187 24.4101 71.511 21.4053 71.511 17.3085C71.5111 13.212 74.5188 10.2078 78.7842 10.2078C78.8811 10.2078 78.9773 10.2109 79.0728 10.2141ZM78.7842 12.6109C75.9953 12.6109 74.1359 14.5775 74.1359 17.3085C74.1359 20.0397 75.9952 22.0062 78.7842 22.0062C81.5729 22.0062 83.4326 20.0397 83.4326 17.3085C83.4326 14.5775 81.5729 12.6109 78.7842 12.6109ZM94.2491 10.2078C98.514 10.2078 101.522 13.212 101.522 17.3085C101.522 21.4053 98.514 24.4101 94.2491 24.4101C89.9834 24.4101 86.9759 21.4053 86.9759 17.3085C86.9759 13.212 89.9834 10.2078 94.2491 10.2078ZM94.2491 12.6109C91.4603 12.6109 89.6005 14.5775 89.6005 17.3085C89.6005 20.0397 91.4603 22.0062 94.2491 22.0062C97.0379 22.0062 98.8977 20.0397 98.8977 17.3085C98.8969 14.5775 97.0379 12.6109 94.2491 12.6109ZM129.603 10.2078C132.83 10.2079 134.826 12.038 134.88 14.3593H132.309C132.227 13.3216 131.271 12.5564 129.631 12.5562C127.908 12.5562 126.924 13.3762 126.924 14.4414C126.924 15.7247 128.345 15.8612 130.013 16.0797C132.364 16.3801 135.235 16.8172 135.236 19.9031C135.236 22.6341 133.021 24.41 129.631 24.4101C126.24 24.4101 124.107 22.6072 124.025 20.1492H126.65C126.704 21.2689 127.744 22.0609 129.631 22.0609C131.599 22.0608 132.61 21.2143 132.61 20.1492C132.61 18.8656 131.189 18.7013 129.494 18.4828C127.142 18.1824 124.298 17.7456 124.298 14.6593C124.298 12.0102 126.377 10.2078 129.603 10.2078ZM139.348 17.6085C139.348 20.5309 140.962 22.0062 143.422 22.0062C145.883 22.0062 147.496 20.5309 147.496 17.6085V10.5625H150.094V17.6085C150.094 22.0877 147.415 24.4093 143.422 24.4093C139.43 24.4093 136.75 22.115 136.75 17.6085V10.5625H139.348V17.6085ZM45.2384 21.4875H55.2734V24.0547H42.4492V6.19296H45.2384V21.4875ZM106.076 24.0547H103.479V10.5625H106.076V24.0547ZM167.201 10.2078C170.373 10.2078 172.78 12.1197 172.78 16.2437V24.0547H170.182V16.2437C170.182 13.7312 168.843 12.611 166.956 12.6109C165.124 12.6109 163.756 13.7857 163.756 16.2437V24.0547H161.158V16.2437C161.158 13.7857 159.764 12.6109 157.932 12.6109C156.045 12.6109 154.705 13.7311 154.705 16.2437V24.0547H152.108V16.2437C152.108 12.1197 154.515 10.2078 157.686 10.2078C159.764 10.2079 161.514 11.1365 162.443 12.8844C163.373 11.1365 165.096 10.2078 167.201 10.2078ZM104.764 4.79999C105.803 4.79999 106.57 5.5646 106.57 6.60233C106.57 7.64017 105.803 8.43279 104.764 8.43279C103.726 8.43271 102.96 7.6401 102.96 6.60233C102.96 5.56468 103.726 4.80009 104.764 4.79999Z" fill="#0A1642"/>
</g>
<defs>
<clipPath id="clip0_1280_951">
<rect width="173" height="32" fill="white"/>
</clipPath>
</defs>
</svg>
