<svg width="173" height="32" viewBox="0 0 173 32" fill="none" xmlns="http://www.w3.org/2000/svg">
<g clip-path="url(#clip0_1280_940)">
<path d="M40.1113 25.2322H53.6558V21.101H44.9253V5.53992H40.1113V25.2322Z" fill="#0A1642"/>
<path d="M61.6459 22.203C59.728 22.203 58.7285 20.5839 58.7285 18.1553C58.7285 15.7267 59.728 14.0815 61.6459 14.0815C63.5638 14.0815 64.5902 15.7267 64.5902 18.1553C64.5902 20.5839 63.5638 22.203 61.6459 22.203ZM61.6729 25.2322C66.1299 25.2322 69.0473 22.1769 69.0473 18.1553C69.0473 14.1337 66.1299 11.0784 61.6729 11.0784C57.2429 11.0784 54.2715 14.1337 54.2715 18.1553C54.2715 22.1769 57.2429 25.2322 61.6729 25.2322Z" fill="#0A1642"/>
<path d="M76.8116 30.1553C78.8932 30.1553 80.7283 29.6946 81.9608 28.6107C83.0837 27.6081 83.8232 26.0906 83.8232 24.0041V11.4848H79.5505V12.9752H79.4958C78.6741 11.81 77.4142 11.0784 75.5517 11.0784C72.0733 11.0784 69.6631 13.9507 69.6631 18.0154C69.6631 22.2698 72.5937 24.6002 75.7435 24.6002C77.4416 24.6002 78.5097 23.9228 79.3314 23.0014H79.441V24.3834C79.441 26.0635 78.6467 27.039 76.7569 27.039C75.2778 27.039 74.5383 26.4158 74.2918 25.6841H69.9644C70.4026 28.5836 72.9498 30.1553 76.8116 30.1553ZM76.7842 21.3214C75.1135 21.3214 74.0179 19.9665 74.0179 17.8799C74.0179 15.7663 75.1135 14.4114 76.7842 14.4114C78.6467 14.4114 79.6327 15.9831 79.6327 17.8528C79.6327 19.8039 78.7289 21.3214 76.7842 21.3214Z" fill="#0A1642"/>
<path d="M92.4293 22.203C90.5114 22.203 89.5119 20.5839 89.5119 18.1553C89.5119 15.7267 90.5114 14.0815 92.4293 14.0815C94.3472 14.0815 95.3733 15.7267 95.3733 18.1553C95.3733 20.5839 94.3472 22.203 92.4293 22.203ZM92.4563 25.2322C96.9131 25.2322 99.8305 22.1769 99.8305 18.1553C99.8305 14.1337 96.9131 11.0784 92.4563 11.0784C88.0261 11.0784 85.0547 14.1337 85.0547 18.1553C85.0547 22.1769 88.0261 25.2322 92.4563 25.2322Z" fill="#0A1642"/>
<path d="M101.062 25.2322H105.371V11.1309H101.062V25.2322ZM101.062 9.17542H105.371V5.53992H101.062V9.17542Z" fill="#0A1642"/>
<path d="M107.219 29.5399H111.737V23.6513H111.793C112.68 24.7919 113.983 25.4816 115.813 25.4816C119.527 25.4816 121.995 22.6699 121.995 18.2667C121.995 14.1818 119.694 11.0784 115.923 11.0784C113.983 11.0784 112.597 11.9006 111.627 13.1208H111.543V11.4762H107.219V29.5399ZM114.648 22.1394C112.708 22.1394 111.599 20.6274 111.599 18.4258C111.599 16.2243 112.597 14.5532 114.565 14.5532C116.506 14.5532 117.42 16.0916 117.42 18.4258C117.42 20.7335 116.367 22.1394 114.648 22.1394Z" fill="#0A1642"/>
<path d="M128.991 25.2322C132.757 25.2322 135.539 23.7204 135.539 20.801C135.539 17.3863 132.56 16.7868 130.031 16.3958C128.204 16.083 126.575 15.9527 126.575 15.0143C126.575 14.1802 127.446 13.7892 128.57 13.7892C129.834 13.7892 130.705 14.1542 130.874 15.3532H135.089C134.864 12.7205 132.672 11.0784 128.598 11.0784C125.198 11.0784 122.388 12.5381 122.388 15.3532C122.388 18.4811 125.057 19.1067 127.558 19.4977C129.469 19.8105 131.211 19.9408 131.211 21.1399C131.211 22 130.34 22.4692 128.963 22.4692C127.446 22.4692 126.49 21.8176 126.322 20.4882H121.994C122.135 23.4337 124.776 25.2322 128.991 25.2322Z" fill="#0A1642"/>
<path d="M141.11 25.2322C143.064 25.2322 144.303 24.4802 145.322 23.1373H145.404V24.8294H149.699V11.0784H145.211V18.7596C145.211 20.3979 144.275 21.5259 142.734 21.5259C141.302 21.5259 140.614 20.6933 140.614 19.1893V11.0784H136.154V20.1025C136.154 23.1642 137.861 25.2322 141.11 25.2322Z" fill="#0A1642"/>
<path d="M151.546 25.2322H155.964V17.5241C155.964 15.8858 156.777 14.731 158.159 14.731C159.488 14.731 160.111 15.5904 160.111 17.0676V25.2322H164.529V17.5241C164.529 15.8858 165.315 14.731 166.724 14.731C168.053 14.731 168.676 15.5904 168.676 17.0676V25.2322H173.094V16.2887C173.094 13.2001 171.522 11.0784 168.378 11.0784C166.589 11.0784 165.098 11.8304 164.014 13.4955H163.96C163.255 12.0184 161.873 11.0784 160.057 11.0784C158.051 11.0784 156.723 12.0184 155.856 13.4418H155.774V11.4812H151.546V25.2322Z" fill="#0A1642"/>
<path fill-rule="evenodd" clip-rule="evenodd" d="M15.724 31.4718C24.3646 31.4718 31.369 24.4831 31.369 15.862C31.369 7.24104 24.3646 0.252319 15.724 0.252319C7.08358 0.252319 0.0791016 7.24104 0.0791016 15.862C0.0791016 24.4831 7.08358 31.4718 15.724 31.4718ZM18.1388 12.3129C19.4724 10.9822 19.4724 8.82485 18.1388 7.4942C16.8052 6.16356 14.643 6.16356 13.3093 7.4942C11.9757 8.82485 11.9757 10.9822 13.3093 12.3129L15.724 14.7221L18.1388 12.3129ZM19.2813 18.2714C20.615 19.6021 22.7772 19.6021 24.1108 18.2714C25.4444 16.9408 25.4444 14.7834 24.1108 13.4528C22.7772 12.1222 20.615 12.1222 19.2813 13.4528L16.8666 15.8621L19.2813 18.2714ZM18.1388 24.23C19.4724 22.8993 19.4724 20.742 18.1388 19.4113L15.724 17.002L13.3093 19.4113C11.9757 20.742 11.9757 22.8993 13.3093 24.23C14.643 25.5606 16.8052 25.5606 18.1388 24.23ZM7.33729 18.2714C6.00368 16.9408 6.00368 14.7834 7.33729 13.4528C8.67097 12.1222 10.8332 12.1222 12.1668 13.4528L14.5816 15.8621L12.1668 18.2714C10.8332 19.6021 8.67097 19.6021 7.33729 18.2714Z" fill="#0A1642"/>
</g>
<defs>
<clipPath id="clip0_1280_940">
<rect width="173" height="32" fill="white"/>
</clipPath>
</defs>
</svg>
