<svg width="32" height="32" viewBox="0 0 32 32" fill="none" xmlns="http://www.w3.org/2000/svg">
<path d="M14.6666 22.6666L17.3333 25.3333C17.5959 25.596 17.9077 25.8043 18.2509 25.9464C18.5941 26.0886 18.9619 26.1617 19.3333 26.1617C19.7047 26.1617 20.0725 26.0886 20.4157 25.9464C20.7588 25.8043 21.0706 25.596 21.3333 25.3333C21.5959 25.0707 21.8043 24.7589 21.9464 24.4157C22.0886 24.0725 22.1617 23.7047 22.1617 23.3333C22.1617 22.9619 22.0886 22.5941 21.9464 22.2509C21.8043 21.9078 21.5959 21.596 21.3333 21.3333" stroke="#22C55E" stroke-width="2" stroke-linecap="round" stroke-linejoin="round"/>
<path d="M18.6666 18.6667L21.9999 22C22.5304 22.5304 23.2498 22.8284 23.9999 22.8284C24.7501 22.8284 25.4695 22.5304 25.9999 22C26.5304 21.4696 26.8284 20.7501 26.8284 20C26.8284 19.2499 26.5304 18.5304 25.9999 18L20.8266 12.8267C20.0766 12.0776 19.0599 11.6569 17.9999 11.6569C16.9399 11.6569 15.9233 12.0776 15.1733 12.8267L13.9999 14C13.4695 14.5304 12.7501 14.8284 11.9999 14.8284C11.2498 14.8284 10.5304 14.5304 9.99994 14C9.4695 13.4696 9.17151 12.7501 9.17151 12C9.17151 11.2499 9.4695 10.5304 9.99994 10L13.7466 6.25333C14.9629 5.04019 16.5491 4.2674 18.2541 4.0573C19.9591 3.84719 21.6855 4.21177 23.1599 5.09333L23.7866 5.46667C24.3543 5.80932 25.0293 5.92816 25.6799 5.8L27.9999 5.33333" stroke="#22C55E" stroke-width="2" stroke-linecap="round" stroke-linejoin="round"/>
<path d="M28 3.99982L29.3333 18.6665H26.6666M3.99996 3.99982L2.66663 18.6665L11.3333 27.3331C11.8637 27.8636 12.5831 28.1616 13.3333 28.1616C14.0834 28.1616 14.8029 27.8636 15.3333 27.3331C15.8637 26.8027 16.1617 26.0833 16.1617 25.3331C16.1617 24.583 15.8637 23.8636 15.3333 23.3331M3.99996 5.33315H14.6666" stroke="#22C55E" stroke-width="2" stroke-linecap="round" stroke-linejoin="round"/>
</svg>
