<svg width="32" height="32" viewBox="0 0 32 32" fill="none" xmlns="http://www.w3.org/2000/svg">
<path d="M16 29.3334C23.3638 29.3334 29.3333 23.3638 29.3333 16C29.3333 8.63622 23.3638 2.66669 16 2.66669C8.63616 2.66669 2.66663 8.63622 2.66663 16C2.66663 23.3638 8.63616 29.3334 16 29.3334Z" stroke="#F59E0B" stroke-width="2" stroke-linecap="round" stroke-linejoin="round"/>
<path d="M14.7346 10.1547C14.8227 9.88447 14.9948 9.64947 15.2259 9.48398C15.4569 9.31848 15.7348 9.23115 16.019 9.23472C16.3032 9.2383 16.5788 9.33259 16.8057 9.50384C17.0325 9.67509 17.1987 9.91434 17.2799 10.1867L18.2626 12.1227C18.3582 12.3109 18.4972 12.4737 18.668 12.5977C18.8389 12.7217 19.0367 12.8034 19.2453 12.836L21.4239 13.1774C21.7045 13.1785 21.9775 13.268 22.2042 13.4333C22.4309 13.5986 22.5997 13.8311 22.6866 14.0979C22.7734 14.3647 22.7739 14.652 22.688 14.9191C22.602 15.1862 22.4341 15.4193 22.2079 15.5854L20.6453 17.1427C20.4957 17.2916 20.3836 17.474 20.3182 17.6747C20.2528 17.8755 20.2361 18.0889 20.2693 18.2974L20.6146 20.448C20.7096 20.7176 20.7155 21.0105 20.6314 21.2837C20.5472 21.5568 20.3776 21.7957 20.1474 21.9651C19.9172 22.1345 19.6386 22.2255 19.3528 22.2246C19.067 22.2236 18.789 22.1309 18.5599 21.96L16.6066 20.96C16.4184 20.8636 16.21 20.8133 15.9986 20.8133C15.7872 20.8133 15.5788 20.8636 15.3906 20.96L13.4373 21.96C13.2082 22.1295 12.9308 22.2211 12.6459 22.2214C12.3609 22.2217 12.0834 22.1308 11.8539 21.9618C11.6244 21.7929 11.4551 21.5549 11.3708 21.2827C11.2864 21.0105 11.2915 20.7184 11.3853 20.4494L11.7293 18.2987C11.7627 18.09 11.7461 17.8763 11.6807 17.6753C11.6153 17.4744 11.5031 17.2918 11.3533 17.1427L9.81194 15.6067C9.57815 15.4447 9.40227 15.2122 9.31001 14.9432C9.21775 14.6742 9.21394 14.3827 9.29913 14.1113C9.38432 13.84 9.55405 13.603 9.78352 13.4349C10.013 13.2669 10.2902 13.1766 10.5746 13.1774L12.7519 12.836C12.9605 12.8034 13.1584 12.7217 13.3292 12.5977C13.5 12.4737 13.639 12.3109 13.7346 12.1227L14.7346 10.1547Z" stroke="#F59E0B" stroke-width="2" stroke-linecap="round" stroke-linejoin="round"/>
</svg>
