<svg width="32" height="32" viewBox="0 0 32 32" fill="none" xmlns="http://www.w3.org/2000/svg">
<path d="M12.8946 5.51466C12.968 4.74178 13.327 4.02405 13.9014 3.5017C14.4757 2.97935 15.2242 2.6899 16.0006 2.6899C16.7769 2.6899 17.5254 2.97935 18.0998 3.5017C18.6741 4.02405 19.0331 4.74178 19.1066 5.51466C19.1507 6.01393 19.3145 6.49522 19.5841 6.91778C19.8537 7.34034 20.2211 7.69174 20.6552 7.94223C21.0893 8.19272 21.5774 8.33493 22.0782 8.35682C22.5789 8.37871 23.0776 8.27964 23.5319 8.06799C24.2374 7.7477 25.0368 7.70135 25.7746 7.93797C26.5124 8.1746 27.1357 8.67726 27.5233 9.34813C27.9109 10.019 28.035 10.8101 27.8714 11.5674C27.7079 12.3248 27.2685 12.9941 26.6386 13.4453C26.2284 13.7331 25.8936 14.1155 25.6625 14.56C25.4313 15.0046 25.3106 15.4983 25.3106 15.9993C25.3106 16.5004 25.4313 16.9941 25.6625 17.4386C25.8936 17.8832 26.2284 18.2655 26.6386 18.5533C27.2685 19.0045 27.7079 19.6739 27.8714 20.4312C28.035 21.1886 27.9109 21.9796 27.5233 22.6505C27.1357 23.3214 26.5124 23.8241 25.7746 24.0607C25.0368 24.2973 24.2374 24.251 23.5319 23.9307C23.0776 23.719 22.5789 23.6199 22.0782 23.6418C21.5774 23.6637 21.0893 23.8059 20.6552 24.0564C20.2211 24.3069 19.8537 24.6583 19.5841 25.0809C19.3145 25.5034 19.1507 25.9847 19.1066 26.484C19.0331 27.2569 18.6741 27.9746 18.0998 28.497C17.5254 29.0193 16.7769 29.3088 16.0006 29.3088C15.2242 29.3088 14.4757 29.0193 13.9014 28.497C13.327 27.9746 12.968 27.2569 12.8946 26.484C12.8505 25.9845 12.6867 25.5031 12.4171 25.0804C12.1474 24.6576 11.7799 24.3061 11.3456 24.0556C10.9112 23.8051 10.4229 23.6629 9.92202 23.6412C9.4211 23.6194 8.92232 23.7187 8.46792 23.9307C7.76244 24.251 6.96302 24.2973 6.22525 24.0607C5.48748 23.8241 4.86415 23.3214 4.47656 22.6505C4.08898 21.9796 3.96487 21.1886 4.1284 20.4312C4.29192 19.6739 4.73139 19.0045 5.36125 18.5533C5.77141 18.2655 6.10622 17.8832 6.33737 17.4386C6.56851 16.9941 6.68919 16.5004 6.68919 15.9993C6.68919 15.4983 6.56851 15.0046 6.33737 14.56C6.10622 14.1155 5.77141 13.7331 5.36125 13.4453C4.73227 12.9939 4.29358 12.3248 4.13045 11.568C3.96732 10.8112 4.0914 10.0207 4.47856 9.35028C4.86573 8.67984 5.48833 8.1773 6.22537 7.94031C6.96241 7.70333 7.76123 7.74884 8.46658 8.06799C8.92093 8.27964 9.41958 8.37871 9.92032 8.35682C10.4211 8.33493 10.9092 8.19272 11.3433 7.94223C11.7774 7.69174 12.1448 7.34034 12.4144 6.91778C12.684 6.49522 12.8478 6.01393 12.8919 5.51466" stroke="#F59E0B" stroke-width="2" stroke-linecap="round" stroke-linejoin="round"/>
<path d="M16 20C18.2091 20 20 18.2091 20 16C20 13.7909 18.2091 12 16 12C13.7909 12 12 13.7909 12 16C12 18.2091 13.7909 20 16 20Z" stroke="#F59E0B" stroke-width="2" stroke-linecap="round" stroke-linejoin="round"/>
</svg>
