<svg width="32" height="32" viewBox="0 0 32 32" fill="none" xmlns="http://www.w3.org/2000/svg">
<path d="M5.13335 11.4933C4.93873 10.6167 4.96862 9.70513 5.22022 8.84312C5.47183 7.98112 5.93701 7.1966 6.57264 6.5623C7.20827 5.928 7.99376 5.46446 8.85629 5.21466C9.71882 4.96486 10.6305 4.93689 11.5067 5.13334C11.989 4.37907 12.6534 3.75835 13.4386 3.32838C14.2239 2.89842 15.1047 2.67305 16 2.67305C16.8953 2.67305 17.7761 2.89842 18.5614 3.32838C19.3467 3.75835 20.0111 4.37907 20.4933 5.13334C21.3709 4.93603 22.2841 4.96388 23.148 5.21429C24.0119 5.46469 24.7985 5.92952 25.4345 6.56554C26.0705 7.20156 26.5353 7.9881 26.7857 8.85201C27.0361 9.71591 27.064 10.6291 26.8667 11.5067C27.6209 11.9889 28.2417 12.6533 28.6716 13.4386C29.1016 14.2239 29.327 15.1047 29.327 16C29.327 16.8953 29.1016 17.7761 28.6716 18.5614C28.2417 19.3467 27.6209 20.0111 26.8667 20.4933C27.0631 21.3696 27.0352 22.2812 26.7854 23.1437C26.5356 24.0063 26.072 24.7918 25.4377 25.4274C24.8034 26.063 24.0189 26.5282 23.1569 26.7798C22.2949 27.0314 21.3833 27.0613 20.5067 26.8667C20.025 27.6238 19.3601 28.2472 18.5735 28.6791C17.7869 29.111 16.904 29.3374 16.0067 29.3374C15.1093 29.3374 14.2264 29.111 13.4398 28.6791C12.6532 28.2472 11.9883 27.6238 11.5067 26.8667C10.6305 27.0631 9.71882 27.0351 8.85629 26.7853C7.99376 26.5355 7.20827 26.072 6.57264 25.4377C5.93701 24.8034 5.47183 24.0189 5.22022 23.1569C4.96862 22.2949 4.93873 21.3833 5.13335 20.5067C4.37329 20.0257 3.74723 19.3602 3.31341 18.5723C2.87959 17.7843 2.6521 16.8995 2.6521 16C2.6521 15.1005 2.87959 14.2157 3.31341 13.4277C3.74723 12.6398 4.37329 11.9743 5.13335 11.4933Z" stroke="#7C3AED" stroke-width="2" stroke-linecap="round" stroke-linejoin="round"/>
<path d="M12 16L14.6667 18.6667L20 13.3333" stroke="#7C3AED" stroke-width="2" stroke-linecap="round" stroke-linejoin="round"/>
</svg>
