<svg width="32" height="32" viewBox="0 0 32 32" fill="none" xmlns="http://www.w3.org/2000/svg">
<path d="M2.66675 22.6667V9.33334C2.66675 8.62609 2.9477 7.94782 3.4478 7.44772C3.94789 6.94762 4.62617 6.66667 5.33341 6.66667H26.6667C27.374 6.66667 28.0523 6.94762 28.5524 7.44772C29.0525 7.94782 29.3334 8.62609 29.3334 9.33334V22.6667C29.3334 23.3739 29.0525 24.0522 28.5524 24.5523C28.0523 25.0524 27.374 25.3333 26.6667 25.3333H5.33341C4.62617 25.3333 3.94789 25.0524 3.4478 24.5523C2.9477 24.0522 2.66675 23.3739 2.66675 22.6667Z" stroke="#22C55E" stroke-width="2" stroke-linecap="round" stroke-linejoin="round"/>
<path d="M24.6668 16.0133L24.6802 15.9987M7.3335 16.0133L7.34683 15.9987M16.0002 20C14.9393 20 13.9219 19.5786 13.1717 18.8284C12.4216 18.0783 12.0002 17.0609 12.0002 16C12.0002 14.9391 12.4216 13.9217 13.1717 13.1716C13.9219 12.4214 14.9393 12 16.0002 12C17.061 12 18.0784 12.4214 18.8286 13.1716C19.5787 13.9217 20.0002 14.9391 20.0002 16C20.0002 17.0609 19.5787 18.0783 18.8286 18.8284C18.0784 19.5786 17.061 20 16.0002 20Z" stroke="#22C55E" stroke-width="2" stroke-linecap="round" stroke-linejoin="round"/>
</svg>
