<svg width="24" height="24" viewBox="0 0 24 24" fill="none" xmlns="http://www.w3.org/2000/svg">
<path d="M8.00018 12H8.01018M12.0002 12H12.0102M16.0002 12H16.0102M2.99218 16.342C3.13922 16.7129 3.17195 17.1193 3.08618 17.509L2.02118 20.799C1.98686 20.9658 1.99574 21.1387 2.04696 21.3011C2.09817 21.4636 2.19004 21.6103 2.31385 21.7273C2.43765 21.8443 2.58929 21.9277 2.75438 21.9697C2.91947 22.0116 3.09254 22.0107 3.25718 21.967L6.67018 20.969C7.0379 20.8961 7.41871 20.9279 7.76918 21.061C9.90457 22.0582 12.3235 22.2692 14.5993 21.6567C16.8751 21.0442 18.8614 19.6477 20.2079 17.7134C21.5543 15.7791 22.1743 13.4314 21.9585 11.0845C21.7427 8.73769 20.7049 6.54247 19.0282 4.88619C17.3516 3.22992 15.1439 2.21904 12.7946 2.0319C10.4452 1.84475 8.10531 2.49338 6.18762 3.86334C4.26993 5.23329 2.89771 7.23654 2.31307 9.51964C1.72843 11.8027 1.96895 14.219 2.99218 16.342Z" stroke="white" stroke-width="1.5" stroke-linecap="round" stroke-linejoin="round"/>
</svg>
