<svg width="10" height="6" viewBox="0 0 10 6" fill="none" xmlns="http://www.w3.org/2000/svg">
<path d="M8.66533 0C9.23333 0 9.53 0.657333 9.18733 1.082L9.13667 1.138L5.13667 5.138C5.02187 5.25279 4.86914 5.32174 4.70712 5.33193C4.5451 5.34211 4.38494 5.29283 4.25667 5.19333L4.194 5.138L0.194 1.138L0.138667 1.07533L0.102667 1.024L0.0666669 0.96L0.0553335 0.936L0.0373335 0.891333L0.0160001 0.819333L0.00933329 0.784L0.00266679 0.744L0 0.706V0.627333L0.00333341 0.588667L0.00933329 0.548667L0.0160001 0.514L0.0373335 0.442L0.0553335 0.397333L0.102 0.309333L0.145333 0.249333L0.194 0.195333L0.256667 0.14L0.308 0.104L0.372 0.0680002L0.396 0.0566667L0.440667 0.0386664L0.512667 0.0173333L0.548 0.0106665L0.588 0.00399971L0.626 0.00133324L8.66533 0Z" fill="#0A1642"/>
</svg>
