<svg width="32" height="32" viewBox="0 0 32 32" fill="none" xmlns="http://www.w3.org/2000/svg">
<path fill-rule="evenodd" clip-rule="evenodd" d="M14.5795 5.24551C16.0173 3.80774 17.9673 3 20.0007 3H24.0007C24.5529 3 25.0007 3.44772 25.0007 4V9.33333C25.0007 9.88562 24.5529 10.3333 24.0007 10.3333H20.0007C19.9122 10.3333 19.8275 10.3685 19.7649 10.431C19.7024 10.4935 19.6673 10.5783 19.6673 10.6667V12.3333H24.0007C24.3086 12.3333 24.5993 12.4752 24.7889 12.7179C24.9784 12.9606 25.0455 13.2771 24.9708 13.5759L23.6375 18.9092C23.5262 19.3544 23.1262 19.6667 22.6673 19.6667H19.6673V28C19.6673 28.5523 19.2196 29 18.6673 29H13.334C12.7817 29 12.334 28.5523 12.334 28V19.6667H9.33398C8.7817 19.6667 8.33398 19.219 8.33398 18.6667V13.3333C8.33398 12.781 8.7817 12.3333 9.33398 12.3333H12.334V10.6667C12.334 8.63334 13.1417 6.68329 14.5795 5.24551ZM20.0007 5C18.4978 5 17.0564 5.59702 15.9937 6.65973C14.931 7.72243 14.334 9.16377 14.334 10.6667V13.3333C14.334 13.8856 13.8863 14.3333 13.334 14.3333H10.334V17.6667H13.334C13.8863 17.6667 14.334 18.1144 14.334 18.6667V27H17.6673V18.6667C17.6673 18.1144 18.115 17.6667 18.6673 17.6667H21.8865L22.7199 14.3333H18.6673C18.115 14.3333 17.6673 13.8856 17.6673 13.3333V10.6667C17.6673 10.0478 17.9132 9.45434 18.3507 9.01675C18.7883 8.57917 19.3818 8.33333 20.0007 8.33333H23.0007V5H20.0007Z" fill="url(#paint0_linear_1007_1893)"/>
<defs>
<linearGradient id="paint0_linear_1007_1893" x1="8.33398" y1="16" x2="25.0007" y2="16" gradientUnits="userSpaceOnUse">
<stop stop-color="#0000FE"/>
<stop offset="1" stop-color="#18E792"/>
</linearGradient>
</defs>
</svg>
