<svg width="32" height="32" viewBox="0 0 32 32" fill="none" xmlns="http://www.w3.org/2000/svg">
<path fill-rule="evenodd" clip-rule="evenodd" d="M14.579 5.24551C16.0168 3.80774 17.9668 3 20.0002 3H24.0002C24.5524 3 25.0002 3.44772 25.0002 4V9.33333C25.0002 9.88562 24.5524 10.3333 24.0002 10.3333H20.0002C19.9118 10.3333 19.827 10.3685 19.7645 10.431C19.7019 10.4935 19.6668 10.5783 19.6668 10.6667V12.3333H24.0002C24.3081 12.3333 24.5989 12.4752 24.7884 12.7179C24.9779 12.9606 25.045 13.2771 24.9703 13.5759L23.637 18.9092C23.5257 19.3544 23.1257 19.6667 22.6668 19.6667H19.6668V28C19.6668 28.5523 19.2191 29 18.6668 29H13.3335C12.7812 29 12.3335 28.5523 12.3335 28V19.6667H9.3335C8.78121 19.6667 8.3335 19.219 8.3335 18.6667V13.3333C8.3335 12.781 8.78121 12.3333 9.3335 12.3333H12.3335V10.6667C12.3335 8.63334 13.1412 6.68329 14.579 5.24551ZM20.0002 5C18.4973 5 17.0559 5.59702 15.9932 6.65973C14.9305 7.72243 14.3335 9.16377 14.3335 10.6667V13.3333C14.3335 13.8856 13.8858 14.3333 13.3335 14.3333H10.3335V17.6667H13.3335C13.8858 17.6667 14.3335 18.1144 14.3335 18.6667V27H17.6668V18.6667C17.6668 18.1144 18.1145 17.6667 18.6668 17.6667H21.8861L22.7194 14.3333H18.6668C18.1145 14.3333 17.6668 13.8856 17.6668 13.3333V10.6667C17.6668 10.0478 17.9127 9.45434 18.3502 9.01675C18.7878 8.57917 19.3813 8.33333 20.0002 8.33333H23.0002V5H20.0002Z" fill="#0A1642"/>
</svg>
