<svg width="32" height="32" viewBox="0 0 32 32" fill="none" xmlns="http://www.w3.org/2000/svg">
<path d="M24.9453 4.65999C22.4227 3.40532 19.3333 2.66666 16 2.66666C12.6667 2.66666 9.57867 3.40532 7.05467 4.65999C5.81733 5.27599 5.19867 5.58399 4.6 6.55199C4.00133 7.51999 4 8.45599 4 10.3307V14.984C4 22.5613 10.056 26.7733 13.564 28.5787C14.5427 29.0813 15.0307 29.3333 16 29.3333C16.9693 29.3333 17.4573 29.0813 18.436 28.5787C21.9427 26.7733 28 22.56 28 14.9827V10.3307C28 8.45599 28 7.51999 27.4 6.55199C26.8 5.58399 26.1827 5.27599 24.9453 4.65999Z" stroke="white" stroke-width="1.5" stroke-linecap="round" stroke-linejoin="round"/>
<path d="M13.333 13.3333V11.3333C13.333 10.6261 13.614 9.9478 14.1141 9.4477C14.6142 8.94761 15.2924 8.66666 15.9997 8.66666C16.7069 8.66666 17.3852 8.94761 17.8853 9.4477C18.3854 9.9478 18.6663 10.6261 18.6663 11.3333V13.3333M13.333 13.3333H18.6663M13.333 13.3333C12.8026 13.3333 12.2939 13.544 11.9188 13.9191C11.5437 14.2942 11.333 14.8029 11.333 15.3333V17.3333C11.333 17.8638 11.5437 18.3725 11.9188 18.7475C12.2939 19.1226 12.8026 19.3333 13.333 19.3333H18.6663C19.1968 19.3333 19.7055 19.1226 20.0806 18.7475C20.4556 18.3725 20.6663 17.8638 20.6663 17.3333V15.3333C20.6663 14.8029 20.4556 14.2942 20.0806 13.9191C19.7055 13.544 19.1968 13.3333 18.6663 13.3333" stroke="white" stroke-width="1.5" stroke-linecap="round" stroke-linejoin="round"/>
</svg>
