<svg width="32" height="32" viewBox="0 0 32 32" fill="none" xmlns="http://www.w3.org/2000/svg">
<path fill-rule="evenodd" clip-rule="evenodd" d="M10.6673 6.33325C9.51805 6.33325 8.41585 6.7898 7.60319 7.60246C6.79053 8.41511 6.33398 9.51731 6.33398 10.6666V21.3333C6.33398 22.4825 6.79053 23.5847 7.60319 24.3974C8.41585 25.21 9.51805 25.6666 10.6673 25.6666H21.334C22.4833 25.6666 23.5855 25.21 24.3981 24.3974C25.2108 23.5847 25.6673 22.4825 25.6673 21.3333V10.6666C25.6673 9.51731 25.2108 8.41511 24.3981 7.60246C23.5855 6.7898 22.4833 6.33325 21.334 6.33325H10.6673ZM6.18897 6.18824C7.37671 5.00051 8.98761 4.33325 10.6673 4.33325H21.334C23.0137 4.33325 24.6246 5.00051 25.8123 6.18824C27.0001 7.37597 27.6673 8.98688 27.6673 10.6666V21.3333C27.6673 23.013 27.0001 24.6239 25.8123 25.8116C24.6246 26.9993 23.0137 27.6666 21.334 27.6666H10.6673C8.98761 27.6666 7.3767 26.9993 6.18897 25.8116C5.00124 24.6239 4.33398 23.013 4.33398 21.3333V10.6666C4.33398 8.98688 5.00124 7.37597 6.18897 6.18824ZM22.0007 8.99992C22.5529 8.99992 23.0007 9.44763 23.0007 9.99992V10.0133C23.0007 10.5655 22.5529 11.0133 22.0007 11.0133C21.4484 11.0133 21.0007 10.5655 21.0007 10.0133V9.99992C21.0007 9.44763 21.4484 8.99992 22.0007 8.99992ZM12.4651 12.4644C13.4028 11.5267 14.6746 10.9999 16.0007 10.9999C17.3267 10.9999 18.5985 11.5267 19.5362 12.4644C20.4739 13.4021 21.0007 14.6738 21.0007 15.9999C21.0007 17.326 20.4739 18.5978 19.5362 19.5355C18.5985 20.4731 17.3267 20.9999 16.0007 20.9999C14.6746 20.9999 13.4028 20.4731 12.4651 19.5355C11.5274 18.5978 11.0007 17.326 11.0007 15.9999C11.0007 14.6738 11.5274 13.4021 12.4651 12.4644ZM16.0007 12.9999C15.205 12.9999 14.4419 13.316 13.8793 13.8786C13.3167 14.4412 13.0007 15.2043 13.0007 15.9999C13.0007 16.7956 13.3167 17.5586 13.8793 18.1212C14.4419 18.6838 15.205 18.9999 16.0007 18.9999C16.7963 18.9999 17.5594 18.6838 18.122 18.1212C18.6846 17.5586 19.0007 16.7956 19.0007 15.9999C19.0007 15.2043 18.6846 14.4412 18.122 13.8786C17.5594 13.316 16.7963 12.9999 16.0007 12.9999Z" fill="url(#paint0_linear_1007_1896)"/>
<defs>
<linearGradient id="paint0_linear_1007_1896" x1="4.33398" y1="15.9999" x2="27.6673" y2="15.9999" gradientUnits="userSpaceOnUse">
<stop stop-color="#0000FE"/>
<stop offset="1" stop-color="#18E792"/>
</linearGradient>
</defs>
</svg>
