<svg width="32" height="32" viewBox="0 0 32 32" fill="none" xmlns="http://www.w3.org/2000/svg">
<path fill-rule="evenodd" clip-rule="evenodd" d="M10.6668 6.3335C9.51756 6.3335 8.41536 6.79004 7.6027 7.6027C6.79004 8.41536 6.3335 9.51756 6.3335 10.6668V21.3335C6.3335 22.4828 6.79004 23.585 7.6027 24.3976C8.41536 25.2103 9.51756 25.6668 10.6668 25.6668H21.3335C22.4828 25.6668 23.585 25.2103 24.3976 24.3976C25.2103 23.585 25.6668 22.4828 25.6668 21.3335V10.6668C25.6668 9.51756 25.2103 8.41536 24.3976 7.6027C23.585 6.79004 22.4828 6.3335 21.3335 6.3335H10.6668ZM6.18849 6.18849C7.37622 5.00076 8.98713 4.3335 10.6668 4.3335H21.3335C23.0132 4.3335 24.6241 5.00076 25.8118 6.18849C26.9996 7.37622 27.6668 8.98712 27.6668 10.6668V21.3335C27.6668 23.0132 26.9996 24.6241 25.8118 25.8118C24.6241 26.9996 23.0132 27.6668 21.3335 27.6668H10.6668C8.98712 27.6668 7.37622 26.9996 6.18849 25.8118C5.00076 24.6241 4.3335 23.0132 4.3335 21.3335V10.6668C4.3335 8.98713 5.00076 7.37622 6.18849 6.18849ZM22.0002 9.00016C22.5524 9.00016 23.0002 9.44788 23.0002 10.0002V10.0135C23.0002 10.5658 22.5524 11.0135 22.0002 11.0135C21.4479 11.0135 21.0002 10.5658 21.0002 10.0135V10.0002C21.0002 9.44788 21.4479 9.00016 22.0002 9.00016ZM12.4646 12.4646C13.4023 11.5269 14.6741 11.0002 16.0002 11.0002C17.3262 11.0002 18.598 11.5269 19.5357 12.4646C20.4734 13.4023 21.0002 14.6741 21.0002 16.0002C21.0002 17.3262 20.4734 18.598 19.5357 19.5357C18.598 20.4734 17.3262 21.0002 16.0002 21.0002C14.6741 21.0002 13.4023 20.4734 12.4646 19.5357C11.5269 18.598 11.0002 17.3262 11.0002 16.0002C11.0002 14.6741 11.5269 13.4023 12.4646 12.4646ZM16.0002 13.0002C15.2045 13.0002 14.4415 13.3162 13.8788 13.8788C13.3162 14.4415 13.0002 15.2045 13.0002 16.0002C13.0002 16.7958 13.3162 17.5589 13.8788 18.1215C14.4415 18.6841 15.2045 19.0002 16.0002 19.0002C16.7958 19.0002 17.5589 18.6841 18.1215 18.1215C18.6841 17.5589 19.0002 16.7958 19.0002 16.0002C19.0002 15.2045 18.6841 14.4415 18.1215 13.8788C17.5589 13.3162 16.7958 13.0002 16.0002 13.0002Z" fill="#0A1642"/>
</svg>
