<svg width="32" height="32" viewBox="0 0 32 32" fill="none" xmlns="http://www.w3.org/2000/svg">
<path fill-rule="evenodd" clip-rule="evenodd" d="M8.00016 6.3335C7.55814 6.3335 7.13421 6.50909 6.82165 6.82165C6.50909 7.13421 6.3335 7.55814 6.3335 8.00016V24.0002C6.3335 24.4422 6.50909 24.8661 6.82165 25.1787C7.13421 25.4912 7.55814 25.6668 8.00016 25.6668H24.0002C24.4422 25.6668 24.8661 25.4912 25.1787 25.1787C25.4912 24.8661 25.6668 24.4422 25.6668 24.0002V8.00016C25.6668 7.55814 25.4912 7.13421 25.1787 6.82165C24.8661 6.50909 24.4422 6.3335 24.0002 6.3335H8.00016ZM5.40744 5.40744C6.09507 4.7198 7.0277 4.3335 8.00016 4.3335H24.0002C24.9726 4.3335 25.9053 4.7198 26.5929 5.40744C27.2805 6.09507 27.6668 7.0277 27.6668 8.00016V24.0002C27.6668 24.9726 27.2805 25.9053 26.5929 26.5929C25.9053 27.2805 24.9726 27.6668 24.0002 27.6668H8.00016C7.0277 27.6668 6.09507 27.2805 5.40744 26.5929C4.7198 25.9053 4.3335 24.9726 4.3335 24.0002V8.00016C4.3335 7.0277 4.7198 6.09507 5.40744 5.40744ZM10.6668 9.66683C11.2191 9.66683 11.6668 10.1145 11.6668 10.6668V10.6802C11.6668 11.2324 11.2191 11.6802 10.6668 11.6802C10.1145 11.6802 9.66683 11.2324 9.66683 10.6802V10.6668C9.66683 10.1145 10.1145 9.66683 10.6668 9.66683ZM10.6668 13.6668C11.2191 13.6668 11.6668 14.1145 11.6668 14.6668V21.3335C11.6668 21.8858 11.2191 22.3335 10.6668 22.3335C10.1145 22.3335 9.66683 21.8858 9.66683 21.3335V14.6668C9.66683 14.1145 10.1145 13.6668 10.6668 13.6668ZM16.8541 14.1462C16.6785 13.8587 16.3617 13.6668 16.0002 13.6668C15.4479 13.6668 15.0002 14.1145 15.0002 14.6668V21.3335C15.0002 21.8858 15.4479 22.3335 16.0002 22.3335C16.5524 22.3335 17.0002 21.8858 17.0002 21.3335V17.3335C17.0002 16.8915 17.1758 16.4675 17.4883 16.155C17.8009 15.8424 18.2248 15.6668 18.6668 15.6668C19.1089 15.6668 19.5328 15.8424 19.8453 16.155C20.1579 16.4675 20.3335 16.8915 20.3335 17.3335V21.3335C20.3335 21.8858 20.7812 22.3335 21.3335 22.3335C21.8858 22.3335 22.3335 21.8858 22.3335 21.3335V17.3335C22.3335 16.361 21.9472 15.4284 21.2596 14.7408C20.5719 14.0531 19.6393 13.6668 18.6668 13.6668C18.0257 13.6668 17.4019 13.8348 16.8541 14.1462Z" fill="#0A1642"/>
</svg>
