<svg width="32" height="32" viewBox="0 0 32 32" fill="none" xmlns="http://www.w3.org/2000/svg">
<path fill-rule="evenodd" clip-rule="evenodd" d="M8.00065 6.33325C7.55862 6.33325 7.1347 6.50885 6.82214 6.82141C6.50958 7.13397 6.33398 7.55789 6.33398 7.99992V23.9999C6.33398 24.4419 6.50958 24.8659 6.82214 25.1784C7.1347 25.491 7.55862 25.6666 8.00065 25.6666H24.0007C24.4427 25.6666 24.8666 25.491 25.1792 25.1784C25.4917 24.8659 25.6673 24.4419 25.6673 23.9999V7.99992C25.6673 7.55789 25.4917 7.13397 25.1792 6.82141C24.8666 6.50885 24.4427 6.33325 24.0007 6.33325H8.00065ZM5.40793 5.40719C6.09556 4.71956 7.02819 4.33325 8.00065 4.33325H24.0007C24.9731 4.33325 25.9057 4.71956 26.5934 5.40719C27.281 6.09483 27.6673 7.02746 27.6673 7.99992V23.9999C27.6673 24.9724 27.281 25.905 26.5934 26.5926C25.9057 27.2803 24.9731 27.6666 24.0007 27.6666H8.00065C7.02819 27.6666 6.09556 27.2803 5.40793 26.5926C4.72029 25.905 4.33398 24.9724 4.33398 23.9999V7.99992C4.33398 7.02746 4.72029 6.09483 5.40793 5.40719ZM10.6673 9.66659C11.2196 9.66659 11.6673 10.1143 11.6673 10.6666V10.6799C11.6673 11.2322 11.2196 11.6799 10.6673 11.6799C10.115 11.6799 9.66732 11.2322 9.66732 10.6799V10.6666C9.66732 10.1143 10.115 9.66659 10.6673 9.66659ZM10.6673 13.6666C11.2196 13.6666 11.6673 14.1143 11.6673 14.6666V21.3333C11.6673 21.8855 11.2196 22.3333 10.6673 22.3333C10.115 22.3333 9.66732 21.8855 9.66732 21.3333V14.6666C9.66732 14.1143 10.115 13.6666 10.6673 13.6666ZM16.8546 14.146C16.679 13.8585 16.3622 13.6666 16.0007 13.6666C15.4484 13.6666 15.0007 14.1143 15.0007 14.6666V21.3333C15.0007 21.8855 15.4484 22.3333 16.0007 22.3333C16.5529 22.3333 17.0007 21.8855 17.0007 21.3333V17.3333C17.0007 16.8912 17.1762 16.4673 17.4888 16.1547C17.8014 15.8422 18.2253 15.6666 18.6673 15.6666C19.1093 15.6666 19.5333 15.8422 19.8458 16.1547C20.1584 16.4673 20.334 16.8912 20.334 17.3333V21.3333C20.334 21.8855 20.7817 22.3333 21.334 22.3333C21.8863 22.3333 22.334 21.8855 22.334 21.3333V17.3333C22.334 16.3608 21.9477 15.4282 21.26 14.7405C20.5724 14.0529 19.6398 13.6666 18.6673 13.6666C18.0262 13.6666 17.4023 13.8345 16.8546 14.146Z" fill="url(#paint0_linear_1007_1898)"/>
<defs>
<linearGradient id="paint0_linear_1007_1898" x1="4.33398" y1="15.9999" x2="27.6673" y2="15.9999" gradientUnits="userSpaceOnUse">
<stop stop-color="#0000FE"/>
<stop offset="1" stop-color="#18E792"/>
</linearGradient>
</defs>
</svg>
