<svg width="32" height="32" viewBox="0 0 32 32" fill="none" xmlns="http://www.w3.org/2000/svg">
<path d="M4 4V25.3333C4 26.0406 4.28095 26.7189 4.78105 27.219C5.28115 27.719 5.95942 28 6.66667 28H28" stroke="white" stroke-width="1.5" stroke-linecap="round" stroke-linejoin="round"/>
<path d="M9.33301 14.9427C9.33305 14.7662 9.40305 14.597 9.52767 14.472L12.1943 11.8053C12.2563 11.7433 12.3298 11.694 12.4108 11.6604C12.4918 11.6268 12.5787 11.6095 12.6663 11.6095C12.754 11.6095 12.8409 11.6268 12.9219 11.6604C13.0028 11.694 13.0764 11.7433 13.1383 11.8053L17.5277 16.1947C17.5896 16.2568 17.6632 16.306 17.7442 16.3396C17.8252 16.3732 17.912 16.3905 17.9997 16.3905C18.0874 16.3905 18.1742 16.3732 18.2552 16.3396C18.3362 16.306 18.4097 16.2568 18.4717 16.1947L24.1943 10.472C24.2875 10.3786 24.4063 10.315 24.5356 10.2891C24.665 10.2632 24.7991 10.2763 24.921 10.3267C25.0429 10.3771 25.1471 10.4625 25.2205 10.5722C25.2938 10.6818 25.333 10.8108 25.333 10.9427V21.3333C25.333 21.687 25.1925 22.0261 24.9425 22.2762C24.6924 22.5262 24.3533 22.6667 23.9997 22.6667H10.6663C10.3127 22.6667 9.97358 22.5262 9.72353 22.2762C9.47348 22.0261 9.33301 21.687 9.33301 21.3333V14.9427Z" stroke="white" stroke-width="1.5" stroke-linecap="round" stroke-linejoin="round"/>
</svg>
