<svg width="32" height="32" viewBox="0 0 32 32" fill="none" xmlns="http://www.w3.org/2000/svg">
<path d="M16.0003 2.66666C18.5872 2.66619 21.1183 3.41823 23.2852 4.83113C25.4521 6.24403 27.1613 8.25677 28.2043 10.624C29.2473 12.9913 29.5791 15.6109 29.1594 18.1634C28.7397 20.716 27.5865 23.0914 25.8403 25M16.0003 7.99999V16L21.3337 18.6667M3.33366 11.8333C2.90879 13.1249 2.68397 14.4738 2.66699 15.8333M3.77366 21.3333C4.52233 23.0558 5.62643 24.6006 7.01366 25.8667M6.18166 6.97999C6.55371 6.57496 6.95047 6.19335 7.36966 5.83732M11.5257 28.56C14.8506 29.7445 18.5095 29.5623 21.7003 28.0533" stroke="white" stroke-width="1.5" stroke-linecap="round" stroke-linejoin="round"/>
</svg>
