<svg width="24" height="24" viewBox="0 0 24 24" fill="none" xmlns="http://www.w3.org/2000/svg">
<g clip-path="url(#clip0_1257_558)">
<path d="M12.9998 7.00005L8.6998 2.70005C8.24818 2.2506 7.63695 1.99829 6.9998 1.99829C6.36265 1.99829 5.75143 2.2506 5.2998 2.70005L2.6998 5.30005C2.25036 5.75167 1.99805 6.36289 1.99805 7.00005C1.99805 7.6372 2.25036 8.24842 2.6998 8.70005L6.9998 13M7.9998 6.00005L9.9998 4.00005M17.9998 16L19.9998 14M16.9998 11L21.2998 15.3C22.2398 16.24 22.2398 17.76 21.2998 18.7L18.6998 21.3C17.7598 22.24 16.2398 22.24 15.2998 21.3L10.9998 17M14.9998 5.00005L18.9998 9.00005M21.1738 6.81205C21.7025 6.28347 21.9996 5.56651 21.9997 4.8189C21.9998 4.07129 21.7029 3.35426 21.1743 2.82555C20.6457 2.29684 19.9288 1.99976 19.1812 1.99967C18.4335 1.99957 17.7165 2.29647 17.1878 2.82505L3.8418 16.174C3.60962 16.4055 3.43792 16.6906 3.3418 17.004L2.0208 21.356C1.99496 21.4425 1.99301 21.5344 2.01515 21.6219C2.0373 21.7094 2.08272 21.7893 2.1466 21.853C2.21047 21.9168 2.29042 21.9621 2.37796 21.9841C2.4655 22.0061 2.55736 22.004 2.6438 21.978L6.9968 20.658C7.30997 20.5628 7.59498 20.3921 7.8268 20.161L21.1738 6.81205Z" stroke="#0000FE" stroke-width="2" stroke-linecap="round" stroke-linejoin="round"/>
</g>
<defs>
<clipPath id="clip0_1257_558">
<rect width="24" height="24" fill="white"/>
</clipPath>
</defs>
</svg>
