<svg width="133" height="32" viewBox="0 0 133 32" fill="none" xmlns="http://www.w3.org/2000/svg">
<g clip-path="url(#clip0_1280_972)">
<path d="M16.0185 22.7485C13.2398 22.7486 10.6551 24.1733 9.17228 26.521L7.33192 29.4347L8.03897 29.8809C8.26011 30.0081 8.48477 30.1298 8.71239 30.2466L10.5271 27.375C11.7163 25.4918 13.7896 24.3496 16.0185 24.3495C18.2475 24.3495 20.3206 25.4918 21.51 27.375L23.3238 30.2466C23.5515 30.1298 23.7761 30.0081 23.9973 29.8809L24.7051 29.4347L22.8648 26.521C21.3818 24.1732 18.7973 22.7485 16.0185 22.7485ZM16.117 29.1542L16.0185 29.1503C15.5263 29.1505 15.0765 29.4192 14.8421 29.8458L14.7984 29.9333L13.9114 31.8672C14.4697 31.9405 15.0369 31.9857 15.6118 32L16.0185 31.1131L16.4244 32C16.9996 31.9857 17.5671 31.9405 18.1257 31.8672L17.2395 29.9333L17.1956 29.8458C16.9769 29.4477 16.5704 29.1874 16.117 29.1542ZM16.8194 9.92504V0H15.2176V9.92504L12.6459 0.338337L11.0988 0.752468L13.6697 10.3384L8.70302 1.74404L7.31549 2.54417L12.2822 11.1378L5.25842 4.12099L4.12508 5.25321L11.1488 12.27L2.5467 7.30823L1.74577 8.6944L10.3487 13.6562L0.753215 11.0878L0.338673 12.6334L9.93573 15.2025H0V16.8028H9.93573L0.338673 19.3719L0.753215 20.9175L10.3487 18.3483L1.74577 23.3109L2.5467 24.697L11.1488 19.7345L4.12508 26.7521L5.25842 27.8843L10.5094 22.6371C10.9599 22.187 11.213 21.5765 11.213 20.94V16.348C11.213 13.6967 13.3647 11.5474 16.0185 11.5472C18.6725 11.5472 20.8241 13.6966 20.8241 16.348V20.9407C20.8241 21.5773 21.0772 22.1878 21.5277 22.6379L26.7786 27.8843L27.9119 26.7521L20.8882 19.7353L29.4903 24.697L30.2913 23.3109L21.6884 18.3483L31.2838 20.9175L31.6983 19.3719L22.1021 16.8028H32.037V15.2025H22.1013L31.6983 12.6334L31.2838 11.0878L21.6884 13.6554L30.2913 8.6944L29.4903 7.30823L20.8866 12.27L27.9119 5.25243L26.7794 4.12099L19.7541 11.1386L24.7215 2.54417L23.334 1.74404L18.3665 10.3384L20.9383 0.752468L19.3911 0.338337L16.8194 9.92504ZM16.0185 25.9498C14.4264 25.9499 12.9583 26.809 12.1797 28.1962L10.5739 31.0561C11.0854 31.2408 11.6088 31.4001 12.1429 31.5327L13.5767 28.9792C14.0718 28.0967 15.0059 27.5502 16.0185 27.5501C17.0313 27.5501 17.9652 28.0966 18.4604 28.9792L19.8933 31.5327C20.4275 31.4002 20.9509 31.2407 21.4623 31.0561L19.8574 28.1962C19.0787 26.8089 17.6107 25.9498 16.0185 25.9498Z" fill="#0A1642"/>
<path d="M126.413 25.5279C125.296 25.5279 124.291 25.3317 123.398 24.9395C122.521 24.5302 121.825 23.9844 121.309 23.3023C120.795 22.6031 120.519 21.8271 120.485 20.9744H123.526C123.578 21.5712 123.861 22.0744 124.377 22.4837C124.91 22.876 125.571 23.072 126.361 23.072C127.186 23.072 127.822 22.9186 128.269 22.6116C128.732 22.2876 128.965 21.8783 128.965 21.3837C128.965 20.855 128.707 20.4628 128.191 20.2069C127.693 19.9512 126.894 19.6697 125.794 19.3628C124.729 19.0728 123.861 18.7914 123.191 18.5186C122.521 18.2457 121.937 17.8279 121.438 17.2651C120.957 16.7023 120.717 15.9604 120.717 15.0395C120.717 14.2891 120.94 13.6069 121.387 12.993C121.834 12.362 122.469 11.8674 123.294 11.5092C124.136 11.1512 125.099 10.972 126.181 10.972C127.796 10.972 129.093 11.3813 130.072 12.2C131.07 13.0015 131.602 14.1015 131.67 15.5H128.732C128.681 14.8689 128.423 14.3659 127.96 13.9907C127.495 13.6155 126.868 13.4279 126.077 13.4279C125.305 13.4279 124.712 13.5728 124.299 13.8628C123.887 14.1527 123.681 14.5364 123.681 15.0139C123.681 15.3891 123.818 15.7046 124.094 15.9604C124.368 16.2163 124.703 16.4209 125.099 16.5744C125.494 16.7108 126.077 16.8899 126.851 17.1116C127.882 17.3844 128.724 17.6659 129.376 17.9558C130.047 18.2287 130.623 18.638 131.103 19.1837C131.585 19.7294 131.834 20.4542 131.851 21.3581C131.851 22.1596 131.628 22.876 131.181 23.5069C130.734 24.138 130.098 24.6325 129.274 24.9907C128.466 25.3488 127.513 25.5279 126.413 25.5279Z" fill="#0A1642"/>
<path d="M107.63 13.2744C108.129 12.6264 108.808 12.0807 109.667 11.6372C110.526 11.1939 111.496 10.9721 112.579 10.9721C113.817 10.9721 114.942 11.2791 115.955 11.8931C116.987 12.4899 117.794 13.3341 118.378 14.4256C118.962 15.5171 119.254 16.7706 119.254 18.1861C119.254 19.6015 118.962 20.8721 118.378 21.9977C117.794 23.1063 116.987 23.976 115.955 24.607C114.942 25.221 113.817 25.5279 112.579 25.5279C111.496 25.5279 110.534 25.3147 109.693 24.8884C108.851 24.445 108.164 23.8992 107.63 23.2512V32H104.692V11.2023H107.63V13.2744ZM116.265 18.1861C116.265 17.2139 116.058 16.3783 115.646 15.6791C115.251 14.9628 114.718 14.4256 114.048 14.0675C113.395 13.6923 112.69 13.5047 111.934 13.5047C111.196 13.5047 110.491 13.6923 109.822 14.0675C109.169 14.4427 108.635 14.9884 108.224 15.7047C107.828 16.421 107.63 17.2651 107.63 18.2372C107.63 19.2093 107.828 20.062 108.224 20.7954C108.635 21.5116 109.169 22.0574 109.822 22.4326C110.491 22.8078 111.196 22.9954 111.934 22.9954C112.69 22.9954 113.395 22.8078 114.048 22.4326C114.718 22.0403 115.251 21.4775 115.646 20.7442C116.058 20.0109 116.265 19.1582 116.265 18.1861Z" fill="#0A1642"/>
<path d="M100.293 9.33486C99.7609 9.33486 99.314 9.15582 98.9535 8.79766C98.5923 8.4395 98.4121 7.9961 98.4121 7.46742C98.4121 6.93874 98.5923 6.49533 98.9535 6.13718C99.314 5.77905 99.7609 5.59998 100.293 5.59998C100.809 5.59998 101.247 5.77905 101.608 6.13718C101.969 6.49533 102.149 6.93874 102.149 7.46742C102.149 7.9961 101.969 8.4395 101.608 8.79766C101.247 9.15582 100.809 9.33486 100.293 9.33486ZM101.737 11.2023V25.2977H98.799V11.2023H101.737Z" fill="#0A1642"/>
<path d="M89.4245 25.5279C88.0846 25.5279 86.8728 25.2294 85.7907 24.6325C84.7079 24.0186 83.8573 23.1659 83.239 22.0744C82.6207 20.9659 82.3115 19.6868 82.3115 18.2372C82.3115 16.8046 82.6287 15.534 83.2646 14.4256C83.9006 13.317 84.768 12.4643 85.8676 11.8674C86.9673 11.2705 88.1959 10.972 89.5535 10.972C90.9111 10.972 92.1397 11.2705 93.2394 11.8674C94.339 12.4643 95.2064 13.317 95.8424 14.4256C96.4783 15.534 96.7955 16.8046 96.7955 18.2372C96.7955 19.6697 96.4695 20.9403 95.8167 22.0488C95.1632 23.1573 94.2701 24.0186 93.136 24.6325C92.0195 25.2294 90.7821 25.5279 89.4245 25.5279ZM89.4245 22.9953C90.1806 22.9953 90.8854 22.8163 91.5382 22.4581C92.2086 22.1 92.7492 21.5628 93.1617 20.8464C93.5741 20.1302 93.78 19.2604 93.78 18.2372C93.78 17.2139 93.583 16.3527 93.1873 15.6535C92.7924 14.9372 92.2686 14.4 91.6151 14.0418C90.9623 13.6837 90.2583 13.5046 89.5022 13.5046C88.7462 13.5046 88.0413 13.6837 87.3886 14.0418C86.7527 14.4 86.2457 14.9372 85.8676 15.6535C85.4896 16.3527 85.3006 17.2139 85.3006 18.2372C85.3006 19.755 85.6874 20.9317 86.4611 21.7674C87.2508 22.586 88.2392 22.9953 89.4245 22.9953Z" fill="#0A1642"/>
<path d="M73.8917 25.5279C72.5515 25.5279 71.3402 25.2295 70.2577 24.6326C69.1752 24.0187 68.3247 23.1659 67.7061 22.0744C67.0876 20.9659 66.7783 19.6868 66.7783 18.2372C66.7783 16.8047 67.0961 15.5341 67.7319 14.4256C68.3676 13.3171 69.2353 12.4643 70.335 11.8675C71.4347 11.2706 72.6632 10.9721 74.0206 10.9721C75.378 10.9721 76.6065 11.2706 77.7062 11.8675C78.8058 12.4643 79.6735 13.3171 80.309 14.4256C80.9449 15.5341 81.2629 16.8047 81.2629 18.2372C81.2629 19.6698 80.9361 20.9403 80.2834 22.0488C79.6306 23.1574 78.7371 24.0187 77.6031 24.6326C76.4863 25.2295 75.2492 25.5279 73.8917 25.5279ZM73.8917 22.9954C74.6477 22.9954 75.3522 22.8163 76.0051 22.4582C76.6753 22.1 77.2165 21.5628 77.6289 20.8465C78.0413 20.1303 78.2474 19.2605 78.2474 18.2372C78.2474 17.2139 78.0498 16.3527 77.6547 15.6535C77.2595 14.9372 76.7354 14.4 76.0824 14.0419C75.4295 13.6838 74.725 13.5047 73.969 13.5047C73.213 13.5047 72.5085 13.6838 71.8556 14.0419C71.2199 14.4 70.713 14.9372 70.335 15.6535C69.957 16.3527 69.768 17.2139 69.768 18.2372C69.768 19.7551 70.1546 20.9318 70.9278 21.7675C71.7182 22.5861 72.7061 22.9954 73.8917 22.9954Z" fill="#0A1642"/>
<path d="M58.3576 25.5279C57.0174 25.5279 55.806 25.2294 54.7235 24.6325C53.6411 24.0186 52.7905 23.1659 52.1719 22.0744C51.5534 20.9659 51.2441 19.6868 51.2441 18.2372C51.2441 16.8046 51.562 15.534 52.1977 14.4256C52.8335 13.317 53.7011 12.4643 54.8008 11.8674C55.9005 11.2705 57.129 10.972 58.4864 10.972C59.8438 10.972 61.0724 11.2705 62.1721 11.8674C63.2716 12.4643 64.1394 13.317 64.7751 14.4256C65.4108 15.534 65.7287 16.8046 65.7287 18.2372C65.7287 19.6697 65.4023 20.9403 64.7493 22.0488C64.0964 23.1573 63.2029 24.0186 62.0689 24.6325C60.9521 25.2294 59.715 25.5279 58.3576 25.5279ZM58.3576 22.9953C59.1136 22.9953 59.8181 22.8163 60.471 22.4581C61.1411 22.1 61.6824 21.5628 62.0947 20.8464C62.5071 20.1302 62.7132 19.2604 62.7132 18.2372C62.7132 17.2139 62.5157 16.3527 62.1205 15.6535C61.7253 14.9372 61.2013 14.4 60.5483 14.0418C59.8953 13.6837 59.1909 13.5046 58.4349 13.5046C57.6789 13.5046 56.9744 13.6837 56.3214 14.0418C55.6858 14.4 55.1788 14.9372 54.8008 15.6535C54.4229 16.3527 54.2338 17.2139 54.2338 18.2372C54.2338 19.755 54.6204 20.9317 55.3937 21.7674C56.184 22.586 57.172 22.9953 58.3576 22.9953Z" fill="#0A1642"/>
<path d="M44.5866 22.9441H50.6433V25.2976H41.6484V7.51855H44.5866V22.9441Z" fill="#0A1642"/>
<path d="M66.7227 25.9186C66.8619 26.7956 67.135 27.5988 67.5419 28.3282C68.1605 29.4196 69.0111 30.2723 70.0935 30.8863C71.176 31.4832 72.3874 31.7817 73.7276 31.7817C75.085 31.7817 76.3221 31.4832 77.4389 30.8863C78.5729 30.2723 79.4664 29.4111 80.1193 28.3026C80.5462 27.5773 80.8338 26.7827 80.9819 25.9186H77.9267C77.8236 26.3504 77.6696 26.7443 77.4647 27.1003C77.0523 27.8166 76.5111 28.3538 75.841 28.7119C75.188 29.07 74.4835 29.2491 73.7276 29.2491C72.5419 29.2491 71.554 28.8398 70.7636 28.0212C70.2528 27.4691 69.9108 26.7683 69.7374 25.9186H66.7227Z" fill="#0A1642"/>
</g>
<defs>
<clipPath id="clip0_1280_972">
<rect width="173" height="32" fill="white"/>
</clipPath>
</defs>
</svg>
