<svg width="173" height="32" viewBox="0 0 173 32" fill="none" xmlns="http://www.w3.org/2000/svg">
<g clip-path="url(#clip0_1318_1418)">
<path d="M16.0185 22.7485C13.2398 22.7486 10.6551 24.1733 9.17228 26.521L7.33192 29.4347L8.03897 29.8809C8.26011 30.0081 8.48477 30.1298 8.71239 30.2466L10.5271 27.375C11.7163 25.4918 13.7896 24.3496 16.0185 24.3495C18.2475 24.3495 20.3206 25.4918 21.51 27.375L23.3238 30.2466C23.5515 30.1298 23.7761 30.0081 23.9973 29.8809L24.7051 29.4347L22.8648 26.521C21.3818 24.1732 18.7973 22.7485 16.0185 22.7485ZM16.117 29.1542L16.0185 29.1503C15.5263 29.1505 15.0765 29.4192 14.8421 29.8458L14.7984 29.9333L13.9114 31.8672C14.4697 31.9405 15.0369 31.9857 15.6118 32L16.0185 31.1131L16.4244 32C16.9996 31.9857 17.5671 31.9405 18.1257 31.8672L17.2395 29.9333L17.1956 29.8458C16.9769 29.4477 16.5704 29.1874 16.117 29.1542ZM16.8194 9.92504V0H15.2176V9.92504L12.6459 0.338337L11.0988 0.752468L13.6697 10.3384L8.70302 1.74404L7.31549 2.54417L12.2822 11.1378L5.25842 4.12099L4.12508 5.25321L11.1488 12.27L2.5467 7.30823L1.74577 8.6944L10.3487 13.6562L0.753215 11.0878L0.338673 12.6334L9.93573 15.2025H0V16.8028H9.93573L0.338673 19.3719L0.753215 20.9175L10.3487 18.3483L1.74577 23.3109L2.5467 24.697L11.1488 19.7345L4.12508 26.7521L5.25842 27.8843L10.5094 22.6371C10.9599 22.187 11.213 21.5765 11.213 20.94V16.348C11.213 13.6967 13.3647 11.5474 16.0185 11.5472C18.6725 11.5472 20.8241 13.6966 20.8241 16.348V20.9407C20.8241 21.5773 21.0772 22.1878 21.5277 22.6379L26.7786 27.8843L27.9119 26.7521L20.8882 19.7353L29.4903 24.697L30.2913 23.3109L21.6884 18.3483L31.2838 20.9175L31.6983 19.3719L22.1021 16.8028H32.037V15.2025H22.1013L31.6983 12.6334L31.2838 11.0878L21.6884 13.6554L30.2913 8.6944L29.4903 7.30823L20.8866 12.27L27.9119 5.25243L26.7794 4.12099L19.7541 11.1386L24.7215 2.54417L23.334 1.74404L18.3665 10.3384L20.9383 0.752468L19.3911 0.338337L16.8194 9.92504ZM16.0185 25.9498C14.4264 25.9499 12.9583 26.809 12.1797 28.1962L10.5739 31.0561C11.0854 31.2408 11.6088 31.4001 12.1429 31.5327L13.5767 28.9792C14.0718 28.0967 15.0059 27.5502 16.0185 27.5501C17.0313 27.5501 17.9652 28.0966 18.4604 28.9792L19.8933 31.5327C20.4275 31.4002 20.9509 31.2407 21.4623 31.0561L19.8574 28.1962C19.0787 26.8089 17.6107 25.9498 16.0185 25.9498Z" fill="#78A5FF"/>
<path d="M167.149 10.9722C168.267 10.9722 169.263 11.2024 170.139 11.6629C171.033 12.1234 171.728 12.8055 172.227 13.7094C172.742 14.6133 173 15.7047 173 16.9838V25.2978H170.088V17.4187C170.088 16.1566 169.77 15.1931 169.134 14.528C168.498 13.8458 167.631 13.5047 166.531 13.5047C165.431 13.5047 164.555 13.8458 163.902 14.528C163.266 15.1931 162.948 16.1566 162.948 17.4187V25.2978H160.036V17.4187C160.036 16.1566 159.718 15.1931 159.082 14.528C158.446 13.8458 157.579 13.5047 156.479 13.5047C155.38 13.5047 154.503 13.8458 153.851 14.528C153.215 15.1931 152.897 16.1566 152.897 17.4187V25.2978H149.959V11.2024H152.897V12.814C153.378 12.2342 153.988 11.7822 154.727 11.4582C155.465 11.1342 156.256 10.9722 157.098 10.9722C158.232 10.9722 159.246 11.211 160.139 11.6885C161.033 12.166 161.72 12.8566 162.201 13.7606C162.63 12.9078 163.301 12.2342 164.211 11.7396C165.122 11.228 166.102 10.9722 167.149 10.9722Z" fill="#1A243A"/>
<path d="M146.984 11.2021V25.2974H144.046V23.6347C143.582 24.2145 142.973 24.6749 142.216 25.0161C141.477 25.3401 140.687 25.5021 139.845 25.5021C138.728 25.5021 137.723 25.2719 136.829 24.8114C135.953 24.3509 135.257 23.6688 134.742 22.7649C134.243 21.861 133.994 20.7696 133.994 19.4905V11.2021H136.907V19.0556C136.907 20.3176 137.225 21.2897 137.86 21.9719C138.496 22.637 139.364 22.9696 140.463 22.9696C141.563 22.9696 142.431 22.637 143.067 21.9719C143.72 21.2897 144.046 20.3176 144.046 19.0556V11.2021H146.984Z" fill="#1A243A"/>
<path d="M126.413 25.528C125.296 25.528 124.291 25.3318 123.398 24.9396C122.521 24.5303 121.825 23.9846 121.309 23.3024C120.795 22.6032 120.519 21.8272 120.485 20.9745H123.526C123.578 21.5714 123.861 22.0745 124.377 22.4838C124.91 22.8761 125.571 23.0722 126.361 23.0722C127.186 23.0722 127.822 22.9187 128.269 22.6117C128.732 22.2877 128.965 21.8784 128.965 21.3838C128.965 20.8551 128.707 20.4629 128.191 20.207C127.693 19.9513 126.894 19.6698 125.794 19.3629C124.729 19.073 123.861 18.7915 123.191 18.5187C122.521 18.2458 121.937 17.828 121.438 17.2652C120.957 16.7024 120.717 15.9606 120.717 15.0396C120.717 14.2892 120.94 13.607 121.387 12.9931C121.834 12.3621 122.469 11.8675 123.294 11.5094C124.136 11.1513 125.099 10.9722 126.181 10.9722C127.796 10.9722 129.093 11.3814 130.072 12.2001C131.07 13.0016 131.602 14.1016 131.67 15.5001H128.732C128.681 14.869 128.423 14.366 127.96 13.9908C127.495 13.6156 126.868 13.428 126.077 13.428C125.305 13.428 124.712 13.573 124.299 13.8629C123.887 14.1528 123.681 14.5365 123.681 15.014C123.681 15.3892 123.818 15.7047 124.094 15.9606C124.368 16.2164 124.703 16.421 125.099 16.5745C125.494 16.711 126.077 16.89 126.851 17.1117C127.882 17.3846 128.724 17.666 129.376 17.9559C130.047 18.2288 130.623 18.6381 131.103 19.1838C131.585 19.7295 131.834 20.4543 131.851 21.3582C131.851 22.1598 131.628 22.8761 131.181 23.507C130.734 24.1381 130.098 24.6326 129.274 24.9908C128.466 25.3489 127.513 25.528 126.413 25.528Z" fill="#1A243A"/>
<path d="M107.63 13.2745C108.129 12.6265 108.808 12.0807 109.667 11.6373C110.526 11.1939 111.496 10.9722 112.579 10.9722C113.817 10.9722 114.942 11.2791 115.955 11.8931C116.987 12.49 117.794 13.3342 118.378 14.4257C118.962 15.5171 119.254 16.7706 119.254 18.1862C119.254 19.6016 118.962 20.8722 118.378 21.9978C117.794 23.1063 116.987 23.9761 115.955 24.607C114.942 25.221 113.817 25.528 112.579 25.528C111.496 25.528 110.534 25.3148 109.693 24.8885C108.851 24.445 108.164 23.8993 107.63 23.2513V32.0001H104.692V11.2024H107.63V13.2745ZM116.265 18.1862C116.265 17.214 116.058 16.3784 115.646 15.6791C115.251 14.9629 114.718 14.4257 114.048 14.0675C113.395 13.6923 112.69 13.5047 111.934 13.5047C111.196 13.5047 110.491 13.6923 109.822 14.0675C109.169 14.4427 108.635 14.9885 108.224 15.7047C107.828 16.421 107.63 17.2652 107.63 18.2373C107.63 19.2094 107.828 20.0621 108.224 20.7954C108.635 21.5117 109.169 22.0574 109.822 22.4326C110.491 22.8078 111.196 22.9954 111.934 22.9954C112.69 22.9954 113.395 22.8078 114.048 22.4326C114.718 22.0404 115.251 21.4776 115.646 20.7442C116.058 20.011 116.265 19.1582 116.265 18.1862Z" fill="#1A243A"/>
<path d="M100.293 9.33498C99.7609 9.33498 99.314 9.15594 98.9535 8.79778C98.5923 8.43962 98.4121 7.99623 98.4121 7.46754C98.4121 6.93886 98.5923 6.49545 98.9535 6.13731C99.314 5.77917 99.7609 5.6001 100.293 5.6001C100.809 5.6001 101.247 5.77917 101.608 6.13731C101.969 6.49545 102.149 6.93886 102.149 7.46754C102.149 7.99623 101.969 8.43962 101.608 8.79778C101.247 9.15594 100.809 9.33498 100.293 9.33498ZM101.737 11.2024V25.2978H98.799V11.2024H101.737Z" fill="#1A243A"/>
<path d="M89.4245 25.528C88.0846 25.528 86.8728 25.2295 85.7907 24.6326C84.7079 24.0187 83.8573 23.166 83.239 22.0745C82.6207 20.966 82.3115 19.6869 82.3115 18.2373C82.3115 16.8047 82.6287 15.5342 83.2646 14.4257C83.9006 13.3171 84.768 12.4644 85.8676 11.8675C86.9673 11.2706 88.1959 10.9722 89.5535 10.9722C90.9111 10.9722 92.1397 11.2706 93.2394 11.8675C94.339 12.4644 95.2064 13.3171 95.8424 14.4257C96.4783 15.5342 96.7955 16.8047 96.7955 18.2373C96.7955 19.6698 96.4695 20.9404 95.8167 22.0489C95.1632 23.1574 94.2701 24.0187 93.136 24.6326C92.0195 25.2295 90.7821 25.528 89.4245 25.528ZM89.4245 22.9954C90.1806 22.9954 90.8854 22.8164 91.5382 22.4582C92.2086 22.1001 92.7492 21.5629 93.1617 20.8466C93.5741 20.1303 93.78 19.2606 93.78 18.2373C93.78 17.214 93.583 16.3528 93.1873 15.6536C92.7924 14.9373 92.2686 14.4001 91.6151 14.0419C90.9623 13.6838 90.2583 13.5047 89.5022 13.5047C88.7462 13.5047 88.0413 13.6838 87.3886 14.0419C86.7527 14.4001 86.2457 14.9373 85.8676 15.6536C85.4896 16.3528 85.3006 17.214 85.3006 18.2373C85.3006 19.7551 85.6874 20.9318 86.4611 21.7675C87.2508 22.5862 88.2392 22.9954 89.4245 22.9954Z" fill="#1A243A"/>
<path d="M73.8917 25.528C72.5515 25.528 71.3402 25.2295 70.2577 24.6326C69.1752 24.0187 68.3247 23.166 67.7061 22.0745C67.0876 20.966 66.7783 19.6869 66.7783 18.2373C66.7783 16.8047 67.0961 15.5342 67.7319 14.4257C68.3676 13.3171 69.2353 12.4644 70.335 11.8675C71.4347 11.2706 72.6632 10.9722 74.0206 10.9722C75.378 10.9722 76.6065 11.2706 77.7062 11.8675C78.8058 12.4644 79.6735 13.3171 80.309 14.4257C80.9449 15.5342 81.2629 16.8047 81.2629 18.2373C81.2629 19.6698 80.9361 20.9404 80.2834 22.0489C79.6306 23.1574 78.7371 24.0187 77.6031 24.6326C76.4863 25.2295 75.2492 25.528 73.8917 25.528ZM73.8917 22.9954C74.6477 22.9954 75.3522 22.8164 76.0051 22.4582C76.6753 22.1001 77.2165 21.5629 77.6289 20.8466C78.0413 20.1303 78.2474 19.2606 78.2474 18.2373C78.2474 17.214 78.0498 16.3528 77.6547 15.6536C77.2595 14.9373 76.7354 14.4001 76.0824 14.0419C75.4295 13.6838 74.725 13.5047 73.969 13.5047C73.213 13.5047 72.5085 13.6838 71.8556 14.0419C71.2199 14.4001 70.713 14.9373 70.335 15.6536C69.957 16.3528 69.768 17.214 69.768 18.2373C69.768 19.7551 70.1546 20.9318 70.9278 21.7675C71.7182 22.5862 72.7061 22.9954 73.8917 22.9954Z" fill="#1A243A"/>
<path d="M58.3576 25.528C57.0174 25.528 55.806 25.2295 54.7235 24.6326C53.6411 24.0187 52.7905 23.166 52.1719 22.0745C51.5534 20.966 51.2441 19.6869 51.2441 18.2373C51.2441 16.8047 51.562 15.5342 52.1977 14.4257C52.8335 13.3171 53.7011 12.4644 54.8008 11.8675C55.9005 11.2706 57.129 10.9722 58.4864 10.9722C59.8438 10.9722 61.0724 11.2706 62.1721 11.8675C63.2716 12.4644 64.1394 13.3171 64.7751 14.4257C65.4108 15.5342 65.7287 16.8047 65.7287 18.2373C65.7287 19.6698 65.4023 20.9404 64.7493 22.0489C64.0964 23.1574 63.2029 24.0187 62.0689 24.6326C60.9521 25.2295 59.715 25.528 58.3576 25.528ZM58.3576 22.9954C59.1136 22.9954 59.8181 22.8164 60.471 22.4582C61.1411 22.1001 61.6824 21.5629 62.0947 20.8466C62.5071 20.1303 62.7132 19.2606 62.7132 18.2373C62.7132 17.214 62.5157 16.3528 62.1205 15.6536C61.7253 14.9373 61.2013 14.4001 60.5483 14.0419C59.8953 13.6838 59.1909 13.5047 58.4349 13.5047C57.6789 13.5047 56.9744 13.6838 56.3214 14.0419C55.6858 14.4001 55.1788 14.9373 54.8008 15.6536C54.4229 16.3528 54.2338 17.214 54.2338 18.2373C54.2338 19.7551 54.6204 20.9318 55.3937 21.7675C56.184 22.5862 57.172 22.9954 58.3576 22.9954Z" fill="#1A243A"/>
<path d="M44.5866 22.9441H50.6433V25.2976H41.6484V7.51855H44.5866V22.9441Z" fill="#1A243A"/>
<path d="M66.7227 25.9185C66.8619 26.7955 67.135 27.5987 67.5419 28.3281C68.1605 29.4195 69.0111 30.2722 70.0935 30.8862C71.176 31.4831 72.3874 31.7816 73.7276 31.7816C75.085 31.7816 76.3221 31.4831 77.4389 30.8862C78.5729 30.2722 79.4664 29.411 80.1193 28.3025C80.5462 27.5772 80.8338 26.7825 80.9819 25.9185H77.9267C77.8236 26.3503 77.6696 26.7441 77.4647 27.1001C77.0523 27.8165 76.5111 28.3537 75.841 28.7118C75.188 29.0699 74.4835 29.249 73.7276 29.249C72.5419 29.249 71.554 28.8397 70.7636 28.0211C70.2528 27.469 69.9108 26.7682 69.7374 25.9185H66.7227Z" fill="#1A243A"/>
</g>
<defs>
<clipPath id="clip0_1318_1418">
<rect width="173" height="32" fill="white"/>
</clipPath>
</defs>
</svg>
