<svg width="173" height="32" viewBox="0 0 173 32" fill="none" xmlns="http://www.w3.org/2000/svg">
<g clip-path="url(#clip0_1318_1397)">
<path d="M13.3423 32.0002H12.3198C9.66358 32.0002 8.06549 31.9997 6.84473 31.7729L13.9097 22.4277L13.3423 32.0002Z" fill="#FF0066"/>
<path d="M25.0276 31.8012C23.8278 31.9991 22.2559 32.0001 19.7176 32.0001H18.5087L17.9385 22.4248L25.0276 31.8012Z" fill="#FF0066"/>
<path d="M31.7742 25.3364C31.7226 25.5816 31.6619 25.8122 31.5879 26.0338C31.1032 27.4851 30.2522 28.7615 29.1433 29.7583L21.1768 20.835L31.7742 25.3364Z" fill="#FF0066"/>
<path d="M2.79165 29.6631C1.73325 28.6807 0.919045 27.4398 0.449454 26.0339C0.368137 25.7903 0.300621 25.5366 0.246094 25.264L10.6715 20.8364L2.79165 29.6631Z" fill="#FF0066"/>
<path d="M32.0371 19.6946C32.0371 20.5942 32.0345 21.3723 32.0257 22.0553L22.5645 18.4048H32.0371V19.6946Z" fill="#FF0066"/>
<path d="M9.2877 18.4048L0.00853258 21.9844C0.000565538 21.3185 0 20.5632 0 19.6946V18.4048H9.2877Z" fill="#FF0066"/>
<path d="M19.7174 0C23.0512 0 24.7182 0.000442934 26.0642 0.448864C28.6715 1.3177 30.7178 3.36166 31.5876 5.96591C32.0366 7.31038 32.037 8.97544 32.037 12.3054V16.0128H22.0326L29.2483 12.9489L27.1081 11.5298L20.1071 14.2301L23.3935 9.8864L21.03 9.24008L17.4008 13.3026L17.1306 8.72728H14.723L14.4485 13.3026L10.8222 9.24008L8.4601 9.8864L11.7423 14.2287L4.74554 11.5298L2.60528 12.9489L9.81959 16.0128H0V12.3054C0 8.97544 0.000443447 7.31038 0.449383 5.96591C1.31923 3.36166 3.36555 1.3177 5.97282 0.448864C7.31884 0.000442934 8.98583 0 12.3196 0H19.7174Z" fill="#FF0066"/>
<path d="M74.7052 25.1545C75.458 26.5646 76.9117 27.4521 78.785 27.4521C80.6582 27.4521 82.1119 26.5646 82.8647 25.1545H85.6824C84.7509 27.972 82.1623 29.8552 78.785 29.8552C75.4078 29.8552 72.819 27.972 71.8872 25.1545H74.7052ZM115.736 10.2076C120.029 10.2076 123.037 13.1572 123.037 17.3904C123.037 21.8695 119.701 24.41 116.174 24.41C113.986 24.4099 112.127 23.4264 111.143 21.6787V29.817H108.545V17.4178C108.545 13.0207 111.553 10.2076 115.736 10.2076ZM115.764 12.6108C113.002 12.6108 111.143 14.5774 111.143 17.3084C111.143 20.0395 113.002 22.006 115.764 22.006C118.552 22.006 120.412 20.0396 120.412 17.3084C120.412 14.5773 118.552 12.6108 115.764 12.6108ZM63.3202 10.2076C67.5856 10.2076 70.5934 13.2118 70.5934 17.3084C70.5934 21.4051 67.5857 24.41 63.3202 24.41C59.0547 24.41 56.0469 21.4051 56.0469 17.3084C56.0471 13.2118 59.0548 10.2076 63.3202 10.2076ZM63.3202 12.6108C60.5313 12.6108 58.672 14.5773 58.6719 17.3084C58.6719 20.0396 60.5312 22.006 63.3202 22.006C66.1092 22.006 67.9686 20.0396 67.9686 17.3084C67.9685 14.5773 66.1091 12.6108 63.3202 12.6108ZM79.0728 10.2139H86.1381V12.5342H84.3152C85.4189 13.7704 86.0572 15.4231 86.0572 17.3084C86.0572 21.4051 83.0498 24.41 78.7842 24.41C74.5187 24.41 71.511 21.4051 71.511 17.3084C71.5111 13.2118 74.5188 10.2076 78.7842 10.2076C78.8811 10.2076 78.9773 10.2108 79.0728 10.2139ZM78.7842 12.6108C75.9953 12.6108 74.1359 14.5773 74.1359 17.3084C74.1359 20.0396 75.9952 22.006 78.7842 22.006C81.5729 22.006 83.4326 20.0396 83.4326 17.3084C83.4326 14.5773 81.5729 12.6108 78.7842 12.6108ZM94.2491 10.2076C98.514 10.2076 101.522 13.2118 101.522 17.3084C101.522 21.4051 98.514 24.41 94.2491 24.41C89.9834 24.41 86.9759 21.4051 86.9759 17.3084C86.9759 13.2118 89.9834 10.2076 94.2491 10.2076ZM94.2491 12.6108C91.4603 12.6108 89.6005 14.5773 89.6005 17.3084C89.6005 20.0396 91.4603 22.006 94.2491 22.006C97.0379 22.006 98.8977 20.0396 98.8977 17.3084C98.8969 14.5773 97.0379 12.6108 94.2491 12.6108ZM129.603 10.2076C132.83 10.2077 134.826 12.0378 134.88 14.3592H132.309C132.227 13.3214 131.271 12.5562 129.631 12.556C127.908 12.556 126.924 13.376 126.924 14.4412C126.924 15.7245 128.345 15.861 130.013 16.0795C132.364 16.3799 135.235 16.817 135.236 19.9029C135.236 22.634 133.021 24.4098 129.631 24.41C126.24 24.41 124.107 22.607 124.025 20.149H126.65C126.704 21.2688 127.744 22.0608 129.631 22.0608C131.599 22.0606 132.61 21.2141 132.61 20.149C132.61 18.8654 131.189 18.7011 129.494 18.4826C127.142 18.1822 124.298 17.7454 124.298 14.6592C124.298 12.01 126.377 10.2076 129.603 10.2076ZM139.348 17.6084C139.348 20.5307 140.962 22.006 143.422 22.006C145.883 22.006 147.496 20.5307 147.496 17.6084V10.5623H150.094V17.6084C150.094 22.0875 147.415 24.4092 143.422 24.4092C139.43 24.4092 136.75 22.1148 136.75 17.6084V10.5623H139.348V17.6084ZM45.2384 21.4873H55.2734V24.0545H42.4492V6.19277H45.2384V21.4873ZM106.076 24.0545H103.479V10.5623H106.076V24.0545ZM167.201 10.2076C170.373 10.2076 172.78 12.1195 172.78 16.2436V24.0545H170.182V16.2436C170.182 13.731 168.843 12.6108 166.956 12.6108C165.124 12.6108 163.756 13.7855 163.756 16.2436V24.0545H161.158V16.2436C161.158 13.7855 159.764 12.6108 157.932 12.6108C156.045 12.6108 154.705 13.7309 154.705 16.2436V24.0545H152.108V16.2436C152.108 12.1195 154.515 10.2076 157.686 10.2076C159.764 10.2077 161.514 11.1364 162.443 12.8842C163.373 11.1363 165.096 10.2076 167.201 10.2076ZM104.764 4.7998C105.803 4.7998 106.57 5.56442 106.57 6.60215C106.57 7.63999 105.803 8.43261 104.764 8.43261C103.726 8.43253 102.96 7.63992 102.96 6.60215C102.96 5.56449 103.726 4.79991 104.764 4.7998Z" fill="#21000D"/>
</g>
<defs>
<clipPath id="clip0_1318_1397">
<rect width="173" height="32" fill="white"/>
</clipPath>
</defs>
</svg>
