<svg width="178" height="32" viewBox="0 0 178 32" fill="none" xmlns="http://www.w3.org/2000/svg">
<g clip-path="url(#clip0_1318_1406)">
<path fill-rule="evenodd" clip-rule="evenodd" d="M0 11.1628V23.0698H3.72385C4.11505 23.0698 4.50244 23.1468 4.86391 23.2964C5.2253 23.446 5.55377 23.6652 5.83033 23.9417C6.10699 24.218 6.32646 24.5462 6.47619 24.9074C6.62583 25.2685 6.70293 25.6556 6.70293 26.0465V29.7674H15.6402L26.8117 18.6047V6.69767H23.0879C22.6966 6.69767 22.3093 6.62069 21.9478 6.47109C21.5864 6.3215 21.258 6.10222 20.9814 5.82581C20.7048 5.5494 20.4853 5.22122 20.3355 4.86008C20.1859 4.49893 20.1088 4.11185 20.1088 3.72093V0H11.1715L0 11.1628ZM12.6611 22.3256H7.4477V14.1395L14.1506 7.44186H19.364V15.6279L12.6611 22.3256Z" fill="#0C8B00"/>
<path d="M171.72 9.11328C173.602 9.11328 175.114 9.69375 176.257 10.8547C177.419 11.9972 178 13.6004 178 15.6643V24.6478H174.127V16.1895C174.127 14.9917 173.823 14.0795 173.214 13.453C172.606 12.808 171.776 12.4856 170.725 12.4856C169.674 12.4856 168.834 12.808 168.207 13.453C167.599 14.0795 167.295 14.9917 167.295 16.1895V24.6478H163.422V16.1895C163.422 14.9917 163.117 14.0795 162.509 13.453C161.901 12.808 161.07 12.4856 160.019 12.4856C158.95 12.4856 158.101 12.808 157.474 13.453C156.866 14.0795 156.561 14.9917 156.561 16.1895V24.6478H152.688V9.33438H156.561V11.1864C157.06 10.5414 157.696 10.0347 158.47 9.66614C159.263 9.29754 160.129 9.11328 161.07 9.11328C162.269 9.11328 163.339 9.37129 164.279 9.88723C165.22 10.3848 165.948 11.1035 166.464 12.0433C166.963 11.1588 167.682 10.4492 168.622 9.91484C169.581 9.38044 170.614 9.11328 171.72 9.11328Z" fill="#021A00"/>
<path d="M149.835 9.33447V24.6479H145.935V22.7129C145.437 23.3764 144.782 23.9015 143.971 24.2885C143.178 24.657 142.311 24.8414 141.37 24.8414C140.172 24.8414 139.111 24.5926 138.189 24.095C137.267 23.5791 136.539 22.8327 136.004 21.8561C135.487 20.8609 135.229 19.6816 135.229 18.318V9.33447H139.102V17.7651C139.102 18.9814 139.406 19.9212 140.015 20.5846C140.624 21.2295 141.454 21.552 142.504 21.552C143.575 21.552 144.413 21.2295 145.022 20.5846C145.631 19.9212 145.935 18.9814 145.935 17.7651V9.33447H149.835Z" fill="#021A00"/>
<path d="M127.126 24.8964C125.872 24.8964 124.747 24.6753 123.751 24.233C122.755 23.7723 121.962 23.155 121.372 22.381C120.8 21.607 120.487 20.7502 120.432 19.8104H124.332C124.406 20.4001 124.692 20.8884 125.19 21.2754C125.706 21.6623 126.342 21.8558 127.098 21.8558C127.836 21.8558 128.408 21.7084 128.813 21.4136C129.238 21.1187 129.45 20.741 129.45 20.2803C129.45 19.7828 129.192 19.4142 128.675 19.1746C128.177 18.9167 127.375 18.6402 126.268 18.3454C125.125 18.069 124.185 17.7833 123.447 17.4885C122.728 17.1937 122.101 16.7422 121.566 16.1341C121.049 15.5259 120.791 14.7059 120.791 13.674C120.791 12.8263 121.031 12.0524 121.511 11.3521C122.008 10.6518 122.709 10.099 123.613 9.6936C124.535 9.28817 125.614 9.08545 126.849 9.08545C128.676 9.08545 130.132 9.54617 131.22 10.4676C132.308 11.3705 132.908 12.5959 133.018 14.1439H129.312C129.256 13.5358 128.998 13.0566 128.537 12.7065C128.095 12.338 127.495 12.1537 126.739 12.1537C126.038 12.1537 125.494 12.2827 125.107 12.5407C124.738 12.7986 124.553 13.158 124.553 13.6187C124.553 14.1347 124.812 14.5309 125.328 14.8073C125.845 15.0653 126.647 15.3324 127.735 15.6088C128.841 15.8853 129.754 16.1709 130.473 16.4658C131.193 16.7606 131.81 17.2213 132.327 17.8478C132.862 18.4559 133.138 19.2667 133.157 20.2803C133.157 21.1648 132.908 21.9572 132.41 22.6575C131.93 23.3577 131.229 23.9105 130.307 24.316C129.404 24.7029 128.343 24.8964 127.126 24.8964Z" fill="#021A00"/>
<path d="M107.354 11.5456C107.852 10.8453 108.535 10.2648 109.402 9.80418C110.286 9.32508 111.292 9.08545 112.416 9.08545C113.726 9.08545 114.906 9.40798 115.958 10.053C117.027 10.6979 117.866 11.6193 118.475 12.8171C119.102 13.9965 119.415 15.3693 119.415 16.9356C119.415 18.502 119.102 19.8933 118.475 21.1095C117.866 22.3073 117.027 23.2379 115.958 23.9013C114.906 24.5647 113.726 24.8964 112.416 24.8964C111.292 24.8964 110.296 24.666 109.429 24.2054C108.581 23.7446 107.889 23.1642 107.354 22.464V31.945H103.481V9.33423H107.354V11.5456ZM115.46 16.9356C115.46 16.0143 115.266 15.2219 114.879 14.5585C114.51 13.8767 114.012 13.3607 113.385 13.0106C112.776 12.6604 112.113 12.4854 111.393 12.4854C110.692 12.4854 110.029 12.6697 109.402 13.0382C108.792 13.3883 108.295 13.9043 107.908 14.5861C107.539 15.2679 107.354 16.0696 107.354 16.9909C107.354 17.9123 107.539 18.714 107.908 19.3958C108.295 20.0776 108.792 20.6028 109.402 20.9713C110.029 21.3214 110.692 21.4965 111.393 21.4965C112.113 21.4965 112.776 21.3122 113.385 20.9437C114.012 20.5751 114.51 20.0499 114.879 19.3681C115.266 18.6863 115.46 17.8755 115.46 16.9356Z" fill="#021A00"/>
<path d="M98.7138 7.50977C98.0315 7.50977 97.4603 7.29784 96.9993 6.87401C96.5562 6.43174 96.335 5.88813 96.335 5.24316C96.335 4.5982 96.5562 4.0638 96.9993 3.63996C97.4603 3.1977 98.0315 2.97656 98.7138 2.97656C99.3967 2.97656 99.959 3.1977 100.401 3.63996C100.862 4.0638 101.093 4.5982 101.093 5.24316C101.093 5.88813 100.862 6.43174 100.401 6.87401C99.959 7.29784 99.3967 7.50977 98.7138 7.50977ZM100.623 9.33407V24.6475H96.7498V9.33407H100.623Z" fill="#021A00"/>
<path d="M86.8825 24.8964C85.4071 24.8964 84.08 24.5739 82.8995 23.929C81.719 23.2655 80.7881 22.3349 80.1051 21.1372C79.4415 19.9394 79.1094 18.5573 79.1094 16.9909C79.1094 15.4246 79.4505 14.0425 80.1327 12.8447C80.8335 11.6469 81.7838 10.7256 82.9822 10.0806C84.1813 9.41721 85.5181 9.08545 86.9935 9.08545C88.4689 9.08545 89.8058 9.41721 91.0048 10.0806C92.2032 10.7256 93.1438 11.6469 93.826 12.8447C94.5269 14.0425 94.8776 15.4246 94.8776 16.9909C94.8776 18.5573 94.5179 19.9394 93.7985 21.1372C93.0976 22.3349 92.1391 23.2655 90.9214 23.929C89.7231 24.5739 88.3765 24.8964 86.8825 24.8964ZM86.8825 21.5241C87.5834 21.5241 88.238 21.3583 88.8472 21.0266C89.4743 20.6764 89.9718 20.1605 90.3405 19.4787C90.7099 18.7969 90.8939 17.9676 90.8939 16.9909C90.8939 15.5352 90.5066 14.4203 89.732 13.6463C88.9761 12.8539 88.0444 12.4577 86.9384 12.4577C85.8317 12.4577 84.9007 12.8539 84.144 13.6463C83.4067 14.4203 83.038 15.5352 83.038 16.9909C83.038 18.4467 83.397 19.5708 84.1165 20.3632C84.8545 21.1372 85.7766 21.5241 86.8825 21.5241Z" fill="#021A00"/>
<path d="M70.2108 24.8964C68.7354 24.8964 67.4076 24.5739 66.2273 23.929C65.047 23.2655 64.1157 22.3349 63.4333 21.1372C62.7694 19.9394 62.4375 18.5573 62.4375 16.9909C62.4375 15.4246 62.7787 14.0425 63.461 12.8447C64.1618 11.6469 65.1116 10.7256 66.3103 10.0806C67.5091 9.41721 68.8461 9.08545 70.3215 9.08545C71.7969 9.08545 73.1339 9.41721 74.3327 10.0806C75.5312 10.7256 76.4718 11.6469 77.154 12.8447C77.8548 14.0425 78.2056 15.4246 78.2056 16.9909C78.2056 18.5573 77.8459 19.9394 77.1264 21.1372C76.4256 22.3349 75.4671 23.2655 74.2496 23.929C73.0509 24.5739 71.7047 24.8964 70.2108 24.8964ZM70.2108 21.5241C70.9116 21.5241 71.5663 21.3583 72.1749 21.0266C72.8019 20.6764 73.2999 20.1605 73.6687 19.4787C74.0376 18.7969 74.222 17.9676 74.222 16.9909C74.222 15.5352 73.8347 14.4203 73.0602 13.6463C72.304 12.8539 71.3727 12.4577 70.2662 12.4577C69.1596 12.4577 68.2283 12.8539 67.4721 13.6463C66.7345 14.4203 66.3656 15.5352 66.3656 16.9909C66.3656 18.4467 66.7253 19.5708 67.4445 20.3632C68.1822 21.1372 69.1043 21.5241 70.2108 21.5241Z" fill="#021A00"/>
<path d="M53.538 24.8964C52.0626 24.8964 50.7348 24.5739 49.5545 23.929C48.3742 23.2655 47.4428 22.3349 46.7605 21.1372C46.0966 19.9394 45.7646 18.5573 45.7646 16.9909C45.7646 15.4246 46.1058 14.0425 46.7882 12.8447C47.4889 11.6469 48.4387 10.7256 49.6375 10.0806C50.8362 9.41721 52.1732 9.08545 53.6486 9.08545C55.1239 9.08545 56.461 9.41721 57.6597 10.0806C58.8585 10.7256 59.799 11.6469 60.4814 12.8447C61.1822 14.0425 61.5326 15.4246 61.5326 16.9909C61.5326 18.5573 61.173 19.9394 60.4537 21.1372C59.7529 22.3349 58.7939 23.2655 57.5768 23.929C56.3781 24.5739 55.0317 24.8964 53.538 24.8964ZM53.538 21.5241C54.2388 21.5241 54.8934 21.3583 55.5021 21.0266C56.1291 20.6764 56.627 20.1605 56.9959 19.4787C57.3647 18.7969 57.5491 17.9676 57.5491 16.9909C57.5491 15.5352 57.1619 14.4203 56.3872 13.6463C55.6311 12.8539 54.6998 12.4577 53.5933 12.4577C52.4868 12.4577 51.5555 12.8539 50.7993 13.6463C50.0616 14.4203 49.6928 15.5352 49.6928 16.9909C49.6928 18.4467 50.0524 19.5708 50.7717 20.3632C51.5094 21.1372 52.4315 21.5241 53.538 21.5241Z" fill="#021A00"/>
<path d="M38.8767 21.5796H45.2393V24.6477H35.0039V5.354H38.8767V21.5796Z" fill="#021A00"/>
<path d="M63.459 26.7044C64.44 29.6195 67.1973 31.7193 70.4453 31.7193H70.8495C74.9194 31.7193 78.2187 28.4226 78.2187 24.356V23.9399H74.2234V24.356C74.2234 26.218 72.7129 27.7273 70.8495 27.7273H70.4453C69.4956 27.7273 68.6376 27.3353 68.0245 26.7044H63.459Z" fill="#021A00"/>
</g>
<defs>
<clipPath id="clip0_1318_1406">
<rect width="178" height="32" fill="white"/>
</clipPath>
</defs>
</svg>
