<svg width="173" height="32" viewBox="0 0 173 32" fill="none" xmlns="http://www.w3.org/2000/svg">
<g clip-path="url(#clip0_1318_1430)">
<path d="M40.1113 25.2323H53.6558V21.1011H44.9253V5.54004H40.1113V25.2323Z" fill="#302A57"/>
<path d="M61.6459 22.2027C59.728 22.2027 58.7285 20.5837 58.7285 18.155C58.7285 15.7264 59.728 14.0812 61.6459 14.0812C63.5638 14.0812 64.5902 15.7264 64.5902 18.155C64.5902 20.5837 63.5638 22.2027 61.6459 22.2027ZM61.6729 25.232C66.1299 25.232 69.0473 22.1766 69.0473 18.155C69.0473 14.1335 66.1299 11.0781 61.6729 11.0781C57.2429 11.0781 54.2715 14.1335 54.2715 18.155C54.2715 22.1766 57.2429 25.232 61.6729 25.232Z" fill="#302A57"/>
<path d="M76.8116 30.155C78.8932 30.155 80.7283 29.6944 81.9608 28.6105C83.0837 27.6078 83.8232 26.0904 83.8232 24.0038V11.4846H79.5505V12.975H79.4958C78.6741 11.8098 77.4142 11.0781 75.5517 11.0781C72.0733 11.0781 69.6631 13.9505 69.6631 18.0152C69.6631 22.2696 72.5937 24.6 75.7435 24.6C77.4416 24.6 78.5097 23.9225 79.3314 23.0012H79.441V24.3832C79.441 26.0633 78.6467 27.0388 76.7569 27.0388C75.2778 27.0388 74.5383 26.4155 74.2918 25.6839H69.9644C70.4026 28.5834 72.9498 30.155 76.8116 30.155ZM76.7842 21.3211C75.1135 21.3211 74.0179 19.9662 74.0179 17.8797C74.0179 15.7661 75.1135 14.4112 76.7842 14.4112C78.6467 14.4112 79.6327 15.9828 79.6327 17.8526C79.6327 19.8036 78.7289 21.3211 76.7842 21.3211Z" fill="#302A57"/>
<path d="M92.4293 22.2027C90.5114 22.2027 89.5119 20.5837 89.5119 18.155C89.5119 15.7264 90.5114 14.0812 92.4293 14.0812C94.3472 14.0812 95.3733 15.7264 95.3733 18.155C95.3733 20.5837 94.3472 22.2027 92.4293 22.2027ZM92.4563 25.232C96.9131 25.232 99.8305 22.1766 99.8305 18.155C99.8305 14.1335 96.9131 11.0781 92.4563 11.0781C88.0261 11.0781 85.0547 14.1335 85.0547 18.155C85.0547 22.1766 88.0261 25.232 92.4563 25.232Z" fill="#302A57"/>
<path d="M101.062 25.2323H105.371V11.131H101.062V25.2323ZM101.062 9.17554H105.371V5.54004H101.062V9.17554Z" fill="#302A57"/>
<path d="M107.219 29.5397H111.737V23.6511H111.793C112.68 24.7917 113.983 25.4813 115.813 25.4813C119.527 25.4813 121.995 22.6696 121.995 18.2665C121.995 14.1816 119.694 11.0781 115.923 11.0781C113.983 11.0781 112.597 11.9004 111.627 13.1206H111.543V11.476H107.219V29.5397ZM114.648 22.1391C112.708 22.1391 111.599 20.6272 111.599 18.4256C111.599 16.224 112.597 14.5529 114.565 14.5529C116.506 14.5529 117.42 16.0914 117.42 18.4256C117.42 20.7333 116.367 22.1391 114.648 22.1391Z" fill="#302A57"/>
<path d="M128.991 25.232C132.757 25.232 135.539 23.7201 135.539 20.8007C135.539 17.3861 132.56 16.7866 130.031 16.3956C128.204 16.0828 126.575 15.9525 126.575 15.0141C126.575 14.18 127.446 13.789 128.57 13.789C129.834 13.789 130.705 14.1539 130.874 15.353H135.089C134.864 12.7203 132.672 11.0781 128.598 11.0781C125.198 11.0781 122.388 12.5378 122.388 15.353C122.388 18.4809 125.057 19.1065 127.558 19.4974C129.469 19.8102 131.211 19.9406 131.211 21.1396C131.211 21.9998 130.34 22.469 128.963 22.469C127.446 22.469 126.49 21.8173 126.322 20.488H121.994C122.135 23.4334 124.776 25.232 128.991 25.232Z" fill="#302A57"/>
<path d="M141.11 25.232C143.064 25.232 144.303 24.48 145.322 23.1371H145.404V24.8291H149.699V11.0781H145.211V18.7593C145.211 20.3976 144.275 21.5257 142.734 21.5257C141.302 21.5257 140.614 20.6931 140.614 19.1891V11.0781H136.154V20.1022C136.154 23.164 137.861 25.232 141.11 25.232Z" fill="#302A57"/>
<path d="M151.546 25.232H155.964V17.5239C155.964 15.8856 156.777 14.7307 158.159 14.7307C159.488 14.7307 160.111 15.5902 160.111 17.0673V25.232H164.529V17.5239C164.529 15.8856 165.315 14.7307 166.724 14.7307C168.053 14.7307 168.676 15.5902 168.676 17.0673V25.232H173.094V16.2885C173.094 13.1999 171.522 11.0781 168.378 11.0781C166.589 11.0781 165.098 11.8301 164.014 13.4953H163.96C163.255 12.0181 161.873 11.0781 160.057 11.0781C158.051 11.0781 156.723 12.0181 155.856 13.4416H155.774V11.481H151.546V25.232Z" fill="#302A57"/>
<path fill-rule="evenodd" clip-rule="evenodd" d="M15.724 31.4719C24.3646 31.4719 31.369 24.4832 31.369 15.8622C31.369 7.24116 24.3646 0.252441 15.724 0.252441C7.08358 0.252441 0.0791016 7.24116 0.0791016 15.8622C0.0791016 24.4832 7.08358 31.4719 15.724 31.4719ZM18.1388 12.313C19.4724 10.9823 19.4724 8.82497 18.1388 7.49432C16.8052 6.16368 14.643 6.16368 13.3093 7.49432C11.9757 8.82497 11.9757 10.9823 13.3093 12.313L15.724 14.7223L18.1388 12.313ZM19.2813 18.2715C20.615 19.6022 22.7772 19.6022 24.1108 18.2715C25.4444 16.9409 25.4444 14.7835 24.1108 13.4529C22.7772 12.1223 20.615 12.1223 19.2813 13.4529L16.8666 15.8622L19.2813 18.2715ZM18.1388 24.2301C19.4724 22.8994 19.4724 20.7421 18.1388 19.4114L15.724 17.0021L13.3093 19.4114C11.9757 20.7421 11.9757 22.8994 13.3093 24.2301C14.643 25.5607 16.8052 25.5607 18.1388 24.2301ZM7.33729 18.2715C6.00368 16.9409 6.00368 14.7835 7.33729 13.4529C8.67097 12.1223 10.8332 12.1223 12.1668 13.4529L14.5816 15.8622L12.1668 18.2715C10.8332 19.6022 8.67097 19.6022 7.33729 18.2715Z" fill="#917DFF"/>
</g>
<defs>
<clipPath id="clip0_1318_1430">
<rect width="173" height="32" fill="white"/>
</clipPath>
</defs>
</svg>
