<svg width="38" height="38" viewBox="0 0 38 38" fill="none" xmlns="http://www.w3.org/2000/svg">
<path d="M19 0.5C29.2173 0.5 37.5 8.78273 37.5 19C37.5 29.2173 29.2173 37.5 19 37.5C8.78273 37.5 0.5 29.2173 0.5 19C0.5 8.78273 8.78273 0.500002 19 0.5Z" fill="#736EFF" stroke="white"/>
<path fill-rule="evenodd" clip-rule="evenodd" d="M10 16.3174V25.1892H12.7746C13.0661 25.1892 13.3548 25.2466 13.6241 25.3581C13.8934 25.4695 14.1381 25.6329 14.3442 25.8389C14.5503 26.0448 14.7138 26.2893 14.8254 26.5584C14.9369 26.8275 14.9943 27.1159 14.9943 27.4072V30.1797H21.6535L29.9774 21.8623V12.9904H27.2027C26.9112 12.9904 26.6226 12.9331 26.3532 12.8216C26.084 12.7101 25.8393 12.5468 25.6332 12.3408C25.4271 12.1348 25.2635 11.8903 25.1519 11.6212C25.0405 11.3521 24.983 11.0637 24.983 10.7725V8H18.3239L10 16.3174ZM19.4338 24.6347H15.5493V18.5353L20.5436 13.5449H24.4281V19.6443L19.4338 24.6347Z" fill="#FEFEFE"/>
</svg>
